<?xml version="1.0" encoding="UTF-8" standalone="no"?>
<!-- Created with Inkscape (http://www.inkscape.org/) -->

<svg
   xmlns:dc="http://purl.org/dc/elements/1.1/"
   xmlns:cc="http://creativecommons.org/ns#"
   xmlns:rdf="http://www.w3.org/1999/02/22-rdf-syntax-ns#"
   xmlns:svg="http://www.w3.org/2000/svg"
   xmlns="http://www.w3.org/2000/svg"
   xmlns:sodipodi="http://sodipodi.sourceforge.net/DTD/sodipodi-0.dtd"
   xmlns:inkscape="http://www.inkscape.org/namespaces/inkscape"
   id="svg2"
   version="1.1"
   inkscape:version="0.48.4 r9939"
   width="1188.75"
   height="405"
   xml:space="preserve"
   sodipodi:docname="iimb_16_2.pdf"><metadata
     id="metadata8"><rdf:RDF><cc:Work
         rdf:about=""><dc:format>image/svg+xml</dc:format><dc:type
           rdf:resource="http://purl.org/dc/dcmitype/StillImage" /><dc:title></dc:title></cc:Work></rdf:RDF></metadata><defs
     id="defs6" /><sodipodi:namedview
     pagecolor="#ffffff"
     bordercolor="#666666"
     borderopacity="1"
     objecttolerance="10"
     gridtolerance="10"
     guidetolerance="10"
     inkscape:pageopacity="0"
     inkscape:pageshadow="2"
     inkscape:window-width="1920"
     inkscape:window-height="1032"
     id="namedview4"
     showgrid="false"
     fit-margin-top="0"
     fit-margin-left="0"
     fit-margin-right="0"
     fit-margin-bottom="0"
     inkscape:zoom="0.8075278"
     inkscape:cx="1191.5218"
     inkscape:cy="180.3989"
     inkscape:window-x="0"
     inkscape:window-y="26"
     inkscape:window-maximized="1"
     inkscape:current-layer="g10" /><g
     id="g10"
     inkscape:groupmode="layer"
     inkscape:label="iimb_16_2"
     transform="matrix(1.25,0,0,-1.25,0,405)"><g
       id="g12"><path
         d="m 477.5,323.5 176,0 0,-53 -176,0 0,53 z"
         style="fill:none;stroke:#ff0000;stroke-width:1;stroke-linecap:butt;stroke-linejoin:miter;stroke-miterlimit:4;stroke-opacity:1;stroke-dasharray:none"
         id="path14"
         inkscape:connector-curvature="0" /><text
         transform="matrix(1,0,0,-1,536.61133,308.29999)"
         id="text16"><tspan
           style="font-size:14px;font-variant:normal;writing-mode:lr-tb;fill:#000000;fill-opacity:1;fill-rule:nonzero;stroke:none;font-family:Nimbus Roman No9 L;-inkscape-font-specification:NimbusRomNo9L-Regu"
           x="0 6.7199998 11.382 18.382 23.086 26.978001 30.870001 37.869999 44.869999 51.085999"
           y="0"
           sodipodi:role="line"
           id="tspan18">{rdf:type}</tspan><tspan
           style="font-size:14px;font-variant:normal;writing-mode:lr-tb;fill:#000000;fill-opacity:1;fill-rule:nonzero;stroke:none;font-family:Nimbus Roman No9 L;-inkscape-font-specification:NimbusRomNo9L-Regu"
           x="-51.078133 -44.078133 -39.416134 -33.20013 -26.984133 -23.092133 -17.646132 -13.754132 -6.7541318 0.245868 4.9078679 11.907868 18.907867 25.907867 29.799868 36.79987 43.79987 50.79987 57.79987 64.799866 71.799866 79.695869 86.695869 90.195869 97.195869 104.19587"
           y="15.000006"
           sodipodi:role="line"
           id="tspan20">precision[234/809514=0.00]</tspan><tspan
           style="font-size:14px;font-variant:normal;writing-mode:lr-tb;fill:#000000;fill-opacity:1;fill-rule:nonzero;stroke:none;font-family:Nimbus Roman No9 L;-inkscape-font-specification:NimbusRomNo9L-Regu"
           x="-36.298836 -32.406837 -25.406836 -19.190836 -12.190836 -8.2988358 -4.406836 -0.55683601 6.4431639 11.105164 18.105164 25.105164 32.105164 35.997166 42.997166 49.997166 56.997166 64.893166 71.893166 75.393166 82.393166 89.393166"
           y="30.000011"
           sodipodi:role="line"
           id="tspan22">identity[234/734=0.32]</tspan></text>
<path
         d="m 0.5,233.5 152,0 0,-53 -152,0 0,53 z"
         style="fill:none;stroke:#008000;stroke-width:1;stroke-linecap:butt;stroke-linejoin:miter;stroke-miterlimit:4;stroke-opacity:1;stroke-dasharray:none"
         id="path24"
         inkscape:connector-curvature="0" /><text
         transform="matrix(1,0,0,-1,7.361328,218.3)"
         id="text26"><tspan
           style="font-size:14px;font-variant:normal;writing-mode:lr-tb;fill:#000000;fill-opacity:1;fill-rule:nonzero;stroke:none;font-family:Nimbus Roman No9 L;-inkscape-font-specification:NimbusRomNo9L-Regu"
           x="0 6.7199998 11.382 16.086 28.532 37.869999 41.762001 47.978001 58.869999 65.870003 72.870003 79.870003 83.762001 87.262001 91.924004 98.924004 103.586 107.478 111.37 118.37 125.37 131.586"
           y="0"
           sodipodi:role="line"
           id="tspan28">{IIMB:amount,rdf:type}</tspan><tspan
           style="font-size:14px;font-variant:normal;writing-mode:lr-tb;fill:#000000;fill-opacity:1;fill-rule:nonzero;stroke:none;font-family:Nimbus Roman No9 L;-inkscape-font-specification:NimbusRomNo9L-Regu"
           x="6.6718678 13.671868 18.333868 24.549868 30.765867 34.657867 40.103867 43.995869 50.995869 57.995869 62.657867 69.657867 76.657867 80.549866 87.549866 94.549866 102.44587 109.44587 112.94587 119.94587 126.94587"
           y="15.000006"
           sodipodi:role="line"
           id="tspan30">precision[14/14=1.00]</tspan><tspan
           style="font-size:14px;font-variant:normal;writing-mode:lr-tb;fill:#000000;fill-opacity:1;fill-rule:nonzero;stroke:none;font-family:Nimbus Roman No9 L;-inkscape-font-specification:NimbusRomNo9L-Regu"
           x="7.4511652 11.343165 18.343166 24.559166 31.559166 35.451164 39.343166 43.193165 50.193165 54.855164 61.855164 68.855164 72.747162 79.747162 86.747162 93.747162 101.64317 108.64317 112.14317 119.14317 126.14317"
           y="30.000011"
           sodipodi:role="line"
           id="tspan32">identity[14/734=0.02]</tspan></text>
<path
         d="M 477.332,286.195 C 395.02,276.168 269.07,258.57 161.5,234 c -2.859,-0.652 -5.762,-1.352 -8.684,-2.086"
         style="fill:none;stroke:#000000;stroke-width:1;stroke-linecap:butt;stroke-linejoin:miter;stroke-miterlimit:4;stroke-opacity:1;stroke-dasharray:none"
         id="path34"
         inkscape:connector-curvature="0" /><path
         d="m 170.5,233.5 158,0 0,-53 -158,0 0,53 z"
         style="fill:none;stroke:#ff0000;stroke-width:1;stroke-linecap:butt;stroke-linejoin:miter;stroke-miterlimit:4;stroke-opacity:1;stroke-dasharray:none"
         id="path36"
         inkscape:connector-curvature="0" /><text
         transform="matrix(1,0,0,-1,176.86133,218.3)"
         id="text38"><tspan
           style="font-size:14px;font-variant:normal;writing-mode:lr-tb;fill:#000000;fill-opacity:1;fill-rule:nonzero;stroke:none;font-family:Nimbus Roman No9 L;-inkscape-font-specification:NimbusRomNo9L-Regu"
           x="0 6.7199998 11.382 16.086 28.532 37.869999 41.762001 47.978001 54.978001 59.639999 64.302002 70.517998 77.517998 83.734001 90.734001 94.234001 98.896004 105.896 110.558 114.45 118.342 125.342 132.342 138.558"
           y="0"
           sodipodi:role="line"
           id="tspan40">{IIMB:currency,rdf:type}</tspan><tspan
           style="font-size:14px;font-variant:normal;writing-mode:lr-tb;fill:#000000;fill-opacity:1;fill-rule:nonzero;stroke:none;font-family:Nimbus Roman No9 L;-inkscape-font-specification:NimbusRomNo9L-Regu"
           x="10.171868 17.171867 21.833868 28.049868 34.265869 38.157867 43.603867 47.495869 54.495869 61.495869 66.157867 73.157867 77.049866 84.049866 91.049866 98.049866 105.94587 112.94587 116.44587 123.44587 130.44586"
           y="15.000006"
           sodipodi:role="line"
           id="tspan42">precision[2/174=0.01]</tspan><tspan
           style="font-size:14px;font-variant:normal;writing-mode:lr-tb;fill:#000000;fill-opacity:1;fill-rule:nonzero;stroke:none;font-family:Nimbus Roman No9 L;-inkscape-font-specification:NimbusRomNo9L-Regu"
           x="14.451164 18.343164 25.343164 31.559164 38.559162 42.451164 46.343163 50.193165 57.193165 61.855164 68.855164 72.747162 79.747162 86.747162 93.747162 101.64317 108.64317 112.14317 119.14317 126.14317"
           y="30.000011"
           sodipodi:role="line"
           id="tspan44">identity[2/734=0.00]</tspan></text>
<path
         d="M 477.406,272.523 C 435.043,261.113 383.574,247.07 337.5,234 c -2.91,-0.824 -5.875,-1.672 -8.867,-2.531"
         style="fill:none;stroke:#000000;stroke-width:1;stroke-linecap:butt;stroke-linejoin:miter;stroke-miterlimit:4;stroke-opacity:1;stroke-dasharray:none"
         id="path46"
         inkscape:connector-curvature="0" /><path
         d="m 766.5,233.5 184,0 0,-53 -184,0 0,53 z"
         style="fill:none;stroke:#008000;stroke-width:1;stroke-linecap:butt;stroke-linejoin:miter;stroke-miterlimit:4;stroke-opacity:1;stroke-dasharray:none"
         id="path48"
         inkscape:connector-curvature="0" /><text
         transform="matrix(1,0,0,-1,772.64062,218.3)"
         id="text50"><tspan
           style="font-size:14px;font-variant:normal;writing-mode:lr-tb;fill:#000000;fill-opacity:1;fill-rule:nonzero;stroke:none;font-family:Nimbus Roman No9 L;-inkscape-font-specification:NimbusRomNo9L-Regu"
           x="0 6.7199998 11.382 16.086 28.532 37.869999 41.762001 48.762001 54.978001 58.869999 65.085999 72.085999 79.085999 83.748001 90.748001 97.748001 101.64 106.302 110.194 117.194 120.694 125.356 132.356 137.01801 140.91 144.802 151.802 158.802 165.01801"
           y="0"
           sodipodi:role="line"
           id="tspan52">{IIMB:date_of_birth,rdf:type}</tspan><tspan
           style="font-size:14px;font-variant:normal;writing-mode:lr-tb;fill:#000000;fill-opacity:1;fill-rule:nonzero;stroke:none;font-family:Nimbus Roman No9 L;-inkscape-font-specification:NimbusRomNo9L-Regu"
           x="16.392572 23.392572 28.054571 34.270573 40.486572 44.378571 49.824574 53.716572 60.716572 67.716576 72.378571 79.378571 86.378571 93.378571 97.270569 104.27057 111.27057 118.27057 126.16657 133.16656 136.66656 143.66656 150.66656"
           y="15.000006"
           sodipodi:role="line"
           id="tspan54">precision[136/136=1.00]</tspan><tspan
           style="font-size:14px;font-variant:normal;writing-mode:lr-tb;fill:#000000;fill-opacity:1;fill-rule:nonzero;stroke:none;font-family:Nimbus Roman No9 L;-inkscape-font-specification:NimbusRomNo9L-Regu"
           x="20.671867 24.563868 31.563868 37.779869 44.779869 48.671867 52.563869 56.413868 63.413868 68.075867 75.075867 82.075867 89.075867 92.967865 99.967865 106.96786 113.96786 121.86387 128.86386 132.36386 139.36386 146.36386"
           y="30.000011"
           sodipodi:role="line"
           id="tspan56">identity[136/734=0.19]</tspan></text>
<path
         d="m 650.641,270.43 c 38.609,-11.598 84.156,-25.278 122.757,-36.871"
         style="fill:none;stroke:#000000;stroke-width:1;stroke-linecap:butt;stroke-linejoin:miter;stroke-miterlimit:4;stroke-opacity:1;stroke-dasharray:none"
         id="path58"
         inkscape:connector-curvature="0" /><path
         d="m 346.5,233.5 228,0 0,-53 -228,0 0,53 z"
         style="fill:none;stroke:#ff0000;stroke-width:1;stroke-linecap:butt;stroke-linejoin:miter;stroke-miterlimit:4;stroke-opacity:1;stroke-dasharray:none"
         id="path60"
         inkscape:connector-curvature="0" /><text
         transform="matrix(1,0,0,-1,352.46484,218.3)"
         id="text62"><tspan
           style="font-size:14px;font-variant:normal;writing-mode:lr-tb;fill:#000000;fill-opacity:1;fill-rule:nonzero;stroke:none;font-family:Nimbus Roman No9 L;-inkscape-font-specification:NimbusRomNo9L-Regu"
           x="0 6.7199998 11.382 16.086 28.532 37.869999 41.762001 46.424 53.424 58.085999 68.977997 75.977997 82.977997 87.639999 94.639999 101.64 108.64 115.64 121.856 126.56 133.56 144.452 150.668 157.668 161.56 165.06 169.722 176.722 181.384 185.276 189.168 196.168 203.168 209.384"
           y="0"
           sodipodi:role="line"
           id="tspan64">{IIMB:form_of_government,rdf:type}</tspan><tspan
           style="font-size:14px;font-variant:normal;writing-mode:lr-tb;fill:#000000;fill-opacity:1;fill-rule:nonzero;stroke:none;font-family:Nimbus Roman No9 L;-inkscape-font-specification:NimbusRomNo9L-Regu"
           x="38.568363 45.568363 50.230362 56.446362 62.662361 66.554359 72.000359 75.892365 82.892365 89.892365 94.554359 101.55436 108.55436 112.44637 119.44637 126.44637 133.44637 140.44637 148.34236 155.34236 158.84236 165.84236 172.84236"
           y="15.000006"
           sodipodi:role="line"
           id="tspan66">precision[24/5108=0.00]</tspan><tspan
           style="font-size:14px;font-variant:normal;writing-mode:lr-tb;fill:#000000;fill-opacity:1;fill-rule:nonzero;stroke:none;font-family:Nimbus Roman No9 L;-inkscape-font-specification:NimbusRomNo9L-Regu"
           x="46.347656 50.239658 57.239658 63.455658 70.455658 74.347656 78.239655 82.089661 89.089661 93.751656 100.75166 107.75166 111.64366 118.64366 125.64366 132.64366 140.53966 147.53966 151.03966 158.03966 165.03966"
           y="30.000011"
           sodipodi:role="line"
           id="tspan68">identity[24/734=0.03]</tspan></text>
<path
         d="M 534.848,270.309 C 521.047,258.742 504.793,245.121 491.008,233.57"
         style="fill:none;stroke:#000000;stroke-width:1;stroke-linecap:butt;stroke-linejoin:miter;stroke-miterlimit:4;stroke-opacity:1;stroke-dasharray:none"
         id="path70"
         inkscape:connector-curvature="0" /><path
         d="m 747.551,299.707 200,0 0,-53 -200,0 0,53 z"
         style="fill:none;stroke:#008000;stroke-width:1;stroke-linecap:butt;stroke-linejoin:miter;stroke-miterlimit:4;stroke-opacity:1;stroke-dasharray:none"
         id="path72"
         inkscape:connector-curvature="0" /><text
         transform="matrix(1,0,0,-1,753.53057,284.5074)"
         id="text74"><tspan
           style="font-size:14px;font-variant:normal;writing-mode:lr-tb;fill:#000000;fill-opacity:1;fill-rule:nonzero;stroke:none;font-family:Nimbus Roman No9 L;-inkscape-font-specification:NimbusRomNo9L-Regu"
           x="0 6.7199998 11.382 16.086 28.532 37.869999 41.762001 45.653999 51.099998 58.099998 65.099998 72.099998 79.099998 86.099998 93.099998 100.1 107.1 113.316 120.316 127.316 133.532 137.032 141.694 148.694 153.356 157.248 161.14 168.14 175.14 181.356"
           y="0"
           sodipodi:role="line"
           id="tspan76">{IIMB:iso_639_1_code,rdf:type}</tspan><tspan
           style="font-size:14px;font-variant:normal;writing-mode:lr-tb;fill:#000000;fill-opacity:1;fill-rule:nonzero;stroke:none;font-family:Nimbus Roman No9 L;-inkscape-font-specification:NimbusRomNo9L-Regu"
           x="38.554684 45.554684 50.216682 56.432686 62.648685 66.540688 71.986687 75.878685 82.878685 89.878685 94.540688 101.54069 105.43269 112.43269 120.32868 127.32868 130.82869 137.82869 144.82869"
           y="15.000006"
           sodipodi:role="line"
           id="tspan78">precision[2/2=1.00]</tspan><tspan
           style="font-size:14px;font-variant:normal;writing-mode:lr-tb;fill:#000000;fill-opacity:1;fill-rule:nonzero;stroke:none;font-family:Nimbus Roman No9 L;-inkscape-font-specification:NimbusRomNo9L-Regu"
           x="35.833981 39.725979 46.725979 52.941978 59.941978 63.833981 67.725983 71.575981 78.575981 83.237984 90.237984 94.129982 101.12998 108.12998 115.12998 123.02598 130.02599 133.52599 140.52599 147.52599"
           y="30.000011"
           sodipodi:role="line"
           id="tspan80">identity[2/734=0.00]</tspan></text>
<path
         d="m 593.25,233.5 154.5,0 0,-53 -154.5,0 0,53 z"
         style="fill:none;stroke:#ff0000;stroke-width:1;stroke-linecap:butt;stroke-linejoin:miter;stroke-miterlimit:4;stroke-opacity:1;stroke-dasharray:none"
         id="path82"
         inkscape:connector-curvature="0" /><text
         transform="matrix(1,0,0,-1,607.19922,218.3)"
         id="text84"><tspan
           style="font-size:14px;font-variant:normal;writing-mode:lr-tb;fill:#000000;fill-opacity:1;fill-rule:nonzero;stroke:none;font-family:Nimbus Roman No9 L;-inkscape-font-specification:NimbusRomNo9L-Regu"
           x="0 6.7199998 11.382 16.086 28.532 37.869999 41.762001 48.762001 54.978001 65.870003 72.085999 75.585999 80.248001 87.248001 91.910004 95.802002 99.694 106.694 113.694 119.91"
           y="0"
           sodipodi:role="line"
           id="tspan86">{IIMB:name,rdf:type}</tspan><tspan
           style="font-size:14px;font-variant:normal;writing-mode:lr-tb;fill:#000000;fill-opacity:1;fill-rule:nonzero;stroke:none;font-family:Nimbus Roman No9 L;-inkscape-font-specification:NimbusRomNo9L-Regu"
           x="-6.1660199 0.83398002 5.4959798 11.71198 17.92798 21.819981 27.26598 31.15798 38.157982 45.157982 49.819981 56.819981 63.819981 70.819977 74.711983 81.711983 88.711983 95.711983 103.60798 110.60798 114.10798 121.10798 128.10799"
           y="15.000006"
           sodipodi:role="line"
           id="tspan88">precision[248/272=0.91]</tspan><tspan
           style="font-size:14px;font-variant:normal;writing-mode:lr-tb;fill:#000000;fill-opacity:1;fill-rule:nonzero;stroke:none;font-family:Nimbus Roman No9 L;-inkscape-font-specification:NimbusRomNo9L-Regu"
           x="-1.886724 2.005276 9.0052757 15.221276 22.221275 26.113276 30.005276 33.855274 40.855274 45.517277 52.517277 59.517277 66.517273 70.409279 77.409279 84.409279 91.409279 99.305275 106.30527 109.80527 116.80527 123.80527"
           y="30.000011"
           sodipodi:role="line"
           id="tspan90">identity[248/734=0.34]</tspan></text>
<path
         d="m 596.152,270.309 c 13.801,-11.567 30.055,-25.188 43.84,-36.739"
         style="fill:none;stroke:#000000;stroke-width:1;stroke-linecap:butt;stroke-linejoin:miter;stroke-miterlimit:4;stroke-opacity:1;stroke-dasharray:none"
         id="path92"
         inkscape:connector-curvature="0" /><path
         d="M 477.332,286.195 C 395.02,276.168 269.07,258.57 161.5,234 c -2.859,-0.652 -5.762,-1.352 -8.684,-2.086"
         style="fill:none;stroke:#000000;stroke-width:1;stroke-linecap:butt;stroke-linejoin:miter;stroke-miterlimit:4;stroke-opacity:1;stroke-dasharray:none"
         id="path94"
         inkscape:connector-curvature="0" /><path
         d="M 477.406,272.523 C 435.043,261.113 383.574,247.07 337.5,234 c -2.91,-0.824 -5.875,-1.672 -8.867,-2.531"
         style="fill:none;stroke:#000000;stroke-width:1;stroke-linecap:butt;stroke-linejoin:miter;stroke-miterlimit:4;stroke-opacity:1;stroke-dasharray:none"
         id="path96"
         inkscape:connector-curvature="0" /><path
         d="m 650.641,270.43 c 38.609,-11.598 84.156,-25.278 122.757,-36.871"
         style="fill:none;stroke:#000000;stroke-width:1;stroke-linecap:butt;stroke-linejoin:miter;stroke-miterlimit:4;stroke-opacity:1;stroke-dasharray:none"
         id="path98"
         inkscape:connector-curvature="0" /><path
         d="M 534.848,270.309 C 521.047,258.742 504.793,245.121 491.008,233.57"
         style="fill:none;stroke:#000000;stroke-width:1;stroke-linecap:butt;stroke-linejoin:miter;stroke-miterlimit:4;stroke-opacity:1;stroke-dasharray:none"
         id="path100"
         inkscape:connector-curvature="0" /><g
         id="g102"
         transform="matrix(0.540602,0,0,-1,0,324)"><path
           d="m 1208.75,23.953 c 43.767,6.149 109.962,16.102 167.045,27.387 1.619,0.316 3.259,0.652 4.906,0.996"
           style="fill:none;stroke:#000000;stroke-width:0.54656398;stroke-linecap:butt;stroke-linejoin:miter;stroke-miterlimit:4;stroke-opacity:1;stroke-dasharray:none"
           id="path104"
           inkscape:connector-curvature="0" /></g><path
         d="m 596.152,270.309 c 13.801,-11.567 30.055,-25.188 43.84,-36.739"
         style="fill:none;stroke:#000000;stroke-width:1;stroke-linecap:butt;stroke-linejoin:miter;stroke-miterlimit:4;stroke-opacity:1;stroke-dasharray:none"
         id="path106"
         inkscape:connector-curvature="0" /><path
         d="m 32.5,143.5 314,0 0,-53 -314,0 0,53 z"
         style="fill:none;stroke:#ff0000;stroke-width:1;stroke-linecap:butt;stroke-linejoin:miter;stroke-miterlimit:4;stroke-opacity:1;stroke-dasharray:none"
         id="path108"
         inkscape:connector-curvature="0" /><text
         transform="matrix(1,0,0,-1,37.714844,128.3)"
         id="text110"><tspan
           style="font-size:14px;font-variant:normal;writing-mode:lr-tb;fill:#000000;fill-opacity:1;fill-rule:nonzero;stroke:none;font-family:Nimbus Roman No9 L;-inkscape-font-specification:NimbusRomNo9L-Regu"
           x="0 6.7199998 11.382 16.086 28.532 37.869999 41.762001 47.978001 54.978001 59.639999 64.302002 70.517998 77.517998 83.734001 90.734001 94.234001 98.896004 103.558 116.004 125.384 129.276 133.938 140.938 145.60001 156.492 163.492 170.492 175.15401 182.15401 189.15401 196.15401 203.15401 209.37 214.032 221.032 231.924 238.14 245.14 249.032 252.532 257.194 264.194 268.85599 272.74799 276.64001 283.64001 290.64001 296.85599"
           y="0"
           sodipodi:role="line"
           id="tspan112">{IIMB:currency,IIMB:form_of_government,rdf:type}</tspan><tspan
           style="font-size:14px;font-variant:normal;writing-mode:lr-tb;fill:#000000;fill-opacity:1;fill-rule:nonzero;stroke:none;font-family:Nimbus Roman No9 L;-inkscape-font-specification:NimbusRomNo9L-Regu"
           x="92.818359 99.818359 104.48036 110.69637 116.91236 120.80436 126.25036 130.14236 137.14236 144.14236 148.80437 155.80437 159.69637 166.69637 173.69637 181.59236 188.59236 192.09236 199.09236 206.09236"
           y="15.000006"
           sodipodi:role="line"
           id="tspan114">precision[4/78=0.05]</tspan><tspan
           style="font-size:14px;font-variant:normal;writing-mode:lr-tb;fill:#000000;fill-opacity:1;fill-rule:nonzero;stroke:none;font-family:Nimbus Roman No9 L;-inkscape-font-specification:NimbusRomNo9L-Regu"
           x="93.597656 97.489662 104.48966 110.70566 117.70566 121.59766 125.48966 129.33966 136.33966 141.00166 148.00166 151.89366 158.89366 165.89366 172.89366 180.78966 187.78966 191.28966 198.28966 205.28966"
           y="30.000011"
           sodipodi:role="line"
           id="tspan116">identity[4/734=0.01]</tspan></text>
<path
         d="M 231.824,180.074 C 224.012,168.613 214.848,155.18 207.051,143.742"
         style="fill:none;stroke:#000000;stroke-width:1;stroke-linecap:butt;stroke-linejoin:miter;stroke-miterlimit:4;stroke-opacity:1;stroke-dasharray:none"
         id="path118"
         inkscape:connector-curvature="0" /><path
         d="m 365.25,143.5 226.5,0 0,-53 -226.5,0 0,53 z"
         style="fill:none;stroke:#008000;stroke-width:1;stroke-linecap:butt;stroke-linejoin:miter;stroke-miterlimit:4;stroke-opacity:1;stroke-dasharray:none"
         id="path120"
         inkscape:connector-curvature="0" /><text
         transform="matrix(1,0,0,-1,371.44922,128.3)"
         id="text122"><tspan
           style="font-size:14px;font-variant:normal;writing-mode:lr-tb;fill:#000000;fill-opacity:1;fill-rule:nonzero;stroke:none;font-family:Nimbus Roman No9 L;-inkscape-font-specification:NimbusRomNo9L-Regu"
           x="0 6.7199998 11.382 16.086 28.532 37.869999 41.762001 47.978001 54.978001 59.639999 64.302002 70.517998 77.517998 83.734001 90.734001 94.234001 98.896004 103.558 116.004 125.384 129.276 136.276 142.492 153.384 159.558 163.058 167.72 174.72 179.382 183.274 187.166 194.166 201.166 207.382"
           y="0"
           sodipodi:role="line"
           id="tspan124">{IIMB:currency,IIMB:name,rdf:type}</tspan><tspan
           style="font-size:14px;font-variant:normal;writing-mode:lr-tb;fill:#000000;fill-opacity:1;fill-rule:nonzero;stroke:none;font-family:Nimbus Roman No9 L;-inkscape-font-specification:NimbusRomNo9L-Regu"
           x="51.583981 58.583981 63.245979 69.461983 75.677979 79.569977 85.015984 88.907982 95.907982 102.90798 107.56998 114.56998 118.46198 125.46198 133.35799 140.35799 143.85799 150.85799 157.85799"
           y="15.000006"
           sodipodi:role="line"
           id="tspan126">precision[2/2=1.00]</tspan><tspan
           style="font-size:14px;font-variant:normal;writing-mode:lr-tb;fill:#000000;fill-opacity:1;fill-rule:nonzero;stroke:none;font-family:Nimbus Roman No9 L;-inkscape-font-specification:NimbusRomNo9L-Regu"
           x="48.863277 52.755276 59.755276 65.971275 72.971275 76.863274 80.75528 84.605278 91.605278 96.267273 103.26727 107.15928 114.15928 121.15928 128.15927 136.05528 143.05528 146.55528 153.55528 160.55528"
           y="30.000011"
           sodipodi:role="line"
           id="tspan128">identity[2/734=0.00]</tspan></text>
<path
         d="m 316.043,180.43 c 30.109,-11.571 65.617,-25.215 95.746,-36.793"
         style="fill:none;stroke:#000000;stroke-width:1;stroke-linecap:butt;stroke-linejoin:miter;stroke-miterlimit:4;stroke-opacity:1;stroke-dasharray:none"
         id="path130"
         inkscape:connector-curvature="0" /><path
         d="M 231.824,180.074 C 224.012,168.613 214.848,155.18 207.051,143.742"
         style="fill:none;stroke:#000000;stroke-width:1;stroke-linecap:butt;stroke-linejoin:miter;stroke-miterlimit:4;stroke-opacity:1;stroke-dasharray:none"
         id="path132"
         inkscape:connector-curvature="0" /><path
         d="m 316.043,180.43 c 30.109,-11.571 65.617,-25.215 95.746,-36.793"
         style="fill:none;stroke:#000000;stroke-width:1;stroke-linecap:butt;stroke-linejoin:miter;stroke-miterlimit:4;stroke-opacity:1;stroke-dasharray:none"
         id="path134"
         inkscape:connector-curvature="0" /><path
         d="M 231.824,180.074 C 224.012,168.613 214.848,155.18 207.051,143.742"
         style="fill:none;stroke:#000000;stroke-width:1;stroke-linecap:butt;stroke-linejoin:miter;stroke-miterlimit:4;stroke-opacity:1;stroke-dasharray:none"
         id="path136"
         inkscape:connector-curvature="0" /><path
         d="m 316.043,180.43 c 30.109,-11.571 65.617,-25.215 95.746,-36.793"
         style="fill:none;stroke:#000000;stroke-width:1;stroke-linecap:butt;stroke-linejoin:miter;stroke-miterlimit:4;stroke-opacity:1;stroke-dasharray:none"
         id="path138"
         inkscape:connector-curvature="0" /><path
         d="M 231.824,180.074 C 224.012,168.613 214.848,155.18 207.051,143.742"
         style="fill:none;stroke:#000000;stroke-width:1;stroke-linecap:butt;stroke-linejoin:miter;stroke-miterlimit:4;stroke-opacity:1;stroke-dasharray:none"
         id="path140"
         inkscape:connector-curvature="0" /><path
         d="m 316.043,180.43 c 30.109,-11.571 65.617,-25.215 95.746,-36.793"
         style="fill:none;stroke:#000000;stroke-width:1;stroke-linecap:butt;stroke-linejoin:miter;stroke-miterlimit:4;stroke-opacity:1;stroke-dasharray:none"
         id="path142"
         inkscape:connector-curvature="0" /><path
         d="M 381.754,180.43 C 346.121,168.859 304.098,155.215 268.445,143.637"
         style="fill:none;stroke:#000000;stroke-width:1;stroke-linecap:butt;stroke-linejoin:miter;stroke-miterlimit:4;stroke-opacity:1;stroke-dasharray:none"
         id="path144"
         inkscape:connector-curvature="0" /><path
         d="m 610.5,143.5 296,0 0,-53 -296,0 0,53 z"
         style="fill:none;stroke:#008000;stroke-width:1;stroke-linecap:butt;stroke-linejoin:miter;stroke-miterlimit:4;stroke-opacity:1;stroke-dasharray:none"
         id="path146"
         inkscape:connector-curvature="0" /><text
         transform="matrix(1,0,0,-1,616.05273,128.3)"
         id="text148"><tspan
           style="font-size:14px;font-variant:normal;writing-mode:lr-tb;fill:#000000;fill-opacity:1;fill-rule:nonzero;stroke:none;font-family:Nimbus Roman No9 L;-inkscape-font-specification:NimbusRomNo9L-Regu"
           x="0 6.7199998 11.382 16.086 28.532 37.869999 41.762001 46.424 53.424 58.085999 68.977997 75.977997 82.977997 87.639999 94.639999 101.64 108.64 115.64 121.856 126.56 133.56 144.452 150.668 157.668 161.56 165.06 169.722 174.384 186.83 196.168 200.06 207.06 213.276 224.168 230.384 233.884 238.54601 245.54601 250.20799 254.10001 257.992 264.992 271.992 278.20801"
           y="0"
           sodipodi:role="line"
           id="tspan150">{IIMB:form_of_government,IIMB:name,rdf:type}</tspan><tspan
           style="font-size:14px;font-variant:normal;writing-mode:lr-tb;fill:#000000;fill-opacity:1;fill-rule:nonzero;stroke:none;font-family:Nimbus Roman No9 L;-inkscape-font-specification:NimbusRomNo9L-Regu"
           x="79.980476 86.980476 91.642471 97.858475 104.07447 107.96648 113.41248 117.30447 124.30447 131.30447 135.96648 142.96648 149.96648 153.85847 160.85847 167.85847 175.75447 182.75447 186.25447 193.25447 200.25447"
           y="15.000006"
           sodipodi:role="line"
           id="tspan152">precision[66/64=1.03]</tspan><tspan
           style="font-size:14px;font-variant:normal;writing-mode:lr-tb;fill:#000000;fill-opacity:1;fill-rule:nonzero;stroke:none;font-family:Nimbus Roman No9 L;-inkscape-font-specification:NimbusRomNo9L-Regu"
           x="80.759773 84.651772 91.651772 97.867775 104.86777 108.75977 112.65177 116.50177 123.50177 128.16377 135.16377 142.16377 146.05577 153.05577 160.05577 167.05577 174.95177 181.95177 185.45177 192.45177 199.45177"
           y="30.000011"
           sodipodi:role="line"
           id="tspan154">identity[66/734=0.09]</tspan></text>
<path
         d="m 547.094,180.43 c 39.265,-11.598 85.594,-25.278 124.855,-36.871"
         style="fill:none;stroke:#000000;stroke-width:1;stroke-linecap:butt;stroke-linejoin:miter;stroke-miterlimit:4;stroke-opacity:1;stroke-dasharray:none"
         id="path156"
         inkscape:connector-curvature="0" /><path
         d="M 381.754,180.43 C 346.121,168.859 304.098,155.215 268.445,143.637"
         style="fill:none;stroke:#000000;stroke-width:1;stroke-linecap:butt;stroke-linejoin:miter;stroke-miterlimit:4;stroke-opacity:1;stroke-dasharray:none"
         id="path158"
         inkscape:connector-curvature="0" /><path
         d="m 547.094,180.43 c 39.265,-11.598 85.594,-25.278 124.855,-36.871"
         style="fill:none;stroke:#000000;stroke-width:1;stroke-linecap:butt;stroke-linejoin:miter;stroke-miterlimit:4;stroke-opacity:1;stroke-dasharray:none"
         id="path160"
         inkscape:connector-curvature="0" /><path
         d="M 381.754,180.43 C 346.121,168.859 304.098,155.215 268.445,143.637"
         style="fill:none;stroke:#000000;stroke-width:1;stroke-linecap:butt;stroke-linejoin:miter;stroke-miterlimit:4;stroke-opacity:1;stroke-dasharray:none"
         id="path162"
         inkscape:connector-curvature="0" /><path
         d="m 547.094,180.43 c 39.265,-11.598 85.594,-25.278 124.855,-36.871"
         style="fill:none;stroke:#000000;stroke-width:1;stroke-linecap:butt;stroke-linejoin:miter;stroke-miterlimit:4;stroke-opacity:1;stroke-dasharray:none"
         id="path164"
         inkscape:connector-curvature="0" /><path
         d="M 381.754,180.43 C 346.121,168.859 304.098,155.215 268.445,143.637"
         style="fill:none;stroke:#000000;stroke-width:1;stroke-linecap:butt;stroke-linejoin:miter;stroke-miterlimit:4;stroke-opacity:1;stroke-dasharray:none"
         id="path166"
         inkscape:connector-curvature="0" /><path
         d="m 547.094,180.43 c 39.265,-11.598 85.594,-25.278 124.855,-36.871"
         style="fill:none;stroke:#000000;stroke-width:1;stroke-linecap:butt;stroke-linejoin:miter;stroke-miterlimit:4;stroke-opacity:1;stroke-dasharray:none"
         id="path168"
         inkscape:connector-curvature="0" /><path
         d="M 614.707,180.43 C 589.465,168.859 559.691,155.215 534.43,143.637"
         style="fill:none;stroke:#000000;stroke-width:1;stroke-linecap:butt;stroke-linejoin:miter;stroke-miterlimit:4;stroke-opacity:1;stroke-dasharray:none"
         id="path170"
         inkscape:connector-curvature="0" /><path
         d="m 696.426,180.074 36.332,-36.332"
         style="fill:none;stroke:#000000;stroke-width:1;stroke-linecap:butt;stroke-linejoin:miter;stroke-miterlimit:4;stroke-opacity:1;stroke-dasharray:none"
         id="path172"
         inkscape:connector-curvature="0" /><path
         d="M 614.707,180.43 C 589.465,168.859 559.691,155.215 534.43,143.637"
         style="fill:none;stroke:#000000;stroke-width:1;stroke-linecap:butt;stroke-linejoin:miter;stroke-miterlimit:4;stroke-opacity:1;stroke-dasharray:none"
         id="path174"
         inkscape:connector-curvature="0" /><path
         d="m 696.426,180.074 36.332,-36.332"
         style="fill:none;stroke:#000000;stroke-width:1;stroke-linecap:butt;stroke-linejoin:miter;stroke-miterlimit:4;stroke-opacity:1;stroke-dasharray:none"
         id="path176"
         inkscape:connector-curvature="0" /><path
         d="M 614.707,180.43 C 589.465,168.859 559.691,155.215 534.43,143.637"
         style="fill:none;stroke:#000000;stroke-width:1;stroke-linecap:butt;stroke-linejoin:miter;stroke-miterlimit:4;stroke-opacity:1;stroke-dasharray:none"
         id="path178"
         inkscape:connector-curvature="0" /><path
         d="m 696.426,180.074 36.332,-36.332"
         style="fill:none;stroke:#000000;stroke-width:1;stroke-linecap:butt;stroke-linejoin:miter;stroke-miterlimit:4;stroke-opacity:1;stroke-dasharray:none"
         id="path180"
         inkscape:connector-curvature="0" /><path
         d="M 614.707,180.43 C 589.465,168.859 559.691,155.215 534.43,143.637"
         style="fill:none;stroke:#000000;stroke-width:1;stroke-linecap:butt;stroke-linejoin:miter;stroke-miterlimit:4;stroke-opacity:1;stroke-dasharray:none"
         id="path182"
         inkscape:connector-curvature="0" /><path
         d="m 696.426,180.074 36.332,-36.332"
         style="fill:none;stroke:#000000;stroke-width:1;stroke-linecap:butt;stroke-linejoin:miter;stroke-miterlimit:4;stroke-opacity:1;stroke-dasharray:none"
         id="path184"
         inkscape:connector-curvature="0" /><path
         d="m 287.5,53.5 382,0 0,-53 -382,0 0,53 z"
         style="fill:none;stroke:#008000;stroke-width:1;stroke-linecap:butt;stroke-linejoin:miter;stroke-miterlimit:4;stroke-opacity:1;stroke-dasharray:none"
         id="path186"
         inkscape:connector-curvature="0" /><text
         transform="matrix(1,0,0,-1,292.30273,38.299999)"
         id="text188"><tspan
           style="font-size:14px;font-variant:normal;writing-mode:lr-tb;fill:#000000;fill-opacity:1;fill-rule:nonzero;stroke:none;font-family:Nimbus Roman No9 L;-inkscape-font-specification:NimbusRomNo9L-Regu"
           x="0 6.7199998 11.382 16.086 28.532 37.869999 41.762001 47.978001 54.978001 59.639999 64.302002 70.517998 77.517998 83.734001 90.734001 94.234001 98.896004 103.558 116.004 125.384 129.276 133.938 140.938 145.60001 156.492 163.492 170.492 175.15401 182.15401 189.15401 196.15401 203.15401 209.37 214.032 221.032 231.924 238.14 245.14 249.032 252.532 257.194 261.85599 274.302 283.68201 287.57401 294.57401 300.79001 311.68201 317.89801 321.39801 326.06 333.06 337.72198 341.61401 345.50601 352.50601 359.50601 365.72198"
           y="0"
           sodipodi:role="line"
           id="tspan190">{IIMB:currency,IIMB:form_of_government,IIMB:name,rdf:type}</tspan><tspan
           style="font-size:14px;font-variant:normal;writing-mode:lr-tb;fill:#000000;fill-opacity:1;fill-rule:nonzero;stroke:none;font-family:Nimbus Roman No9 L;-inkscape-font-specification:NimbusRomNo9L-Regu"
           x="130.73047 137.73047 142.39247 148.60847 154.82448 158.71648 164.16248 168.05447 175.05447 182.05447 186.71648 193.71648 197.60847 204.60847 212.50447 219.50447 223.00447 230.00447 237.00447"
           y="15.000006"
           sodipodi:role="line"
           id="tspan192">precision[2/2=1.00]</tspan><tspan
           style="font-size:14px;font-variant:normal;writing-mode:lr-tb;fill:#000000;fill-opacity:1;fill-rule:nonzero;stroke:none;font-family:Nimbus Roman No9 L;-inkscape-font-specification:NimbusRomNo9L-Regu"
           x="128.00977 131.90176 138.90176 145.11777 152.11777 156.00977 159.90176 163.75177 170.75177 175.41377 182.41377 186.30577 193.30577 200.30577 207.30577 215.20177 222.20177 225.70177 232.70177 239.70177"
           y="30.000011"
           sodipodi:role="line"
           id="tspan194">identity[2/734=0.00]</tspan></text>
<path
         d="M 267.285,90.43 C 304.625,78.832 349.551,65.152 388.367,53.559"
         style="fill:none;stroke:#000000;stroke-width:1;stroke-linecap:butt;stroke-linejoin:miter;stroke-miterlimit:4;stroke-opacity:1;stroke-dasharray:none"
         id="path196"
         inkscape:connector-curvature="0" /><path
         d="M 472.285,90.074 C 471.566,78.613 471.57,65.18 472.297,53.742"
         style="fill:none;stroke:#000000;stroke-width:1;stroke-linecap:butt;stroke-linejoin:miter;stroke-miterlimit:4;stroke-opacity:1;stroke-dasharray:none"
         id="path198"
         inkscape:connector-curvature="0" /><path
         d="M 658.555,90.43 C 619.52,78.859 576.098,65.215 541.473,53.637"
         style="fill:none;stroke:#000000;stroke-width:1;stroke-linecap:butt;stroke-linejoin:miter;stroke-miterlimit:4;stroke-opacity:1;stroke-dasharray:none"
         id="path200"
         inkscape:connector-curvature="0" /></g></g></svg>