<?xml version="1.0" encoding="UTF-8" standalone="no"?>
<!-- Created with Inkscape (http://www.inkscape.org/) -->

<svg
   xmlns:dc="http://purl.org/dc/elements/1.1/"
   xmlns:cc="http://creativecommons.org/ns#"
   xmlns:rdf="http://www.w3.org/1999/02/22-rdf-syntax-ns#"
   xmlns:svg="http://www.w3.org/2000/svg"
   xmlns="http://www.w3.org/2000/svg"
   xmlns:sodipodi="http://sodipodi.sourceforge.net/DTD/sodipodi-0.dtd"
   xmlns:inkscape="http://www.inkscape.org/namespaces/inkscape"
   id="svg2"
   version="1.1"
   inkscape:version="0.48.4 r9939"
   width="339.40875"
   height="328.06625"
   xml:space="preserve"
   sodipodi:docname="in_higher.pdf"><metadata
     id="metadata8"><rdf:RDF><cc:Work
         rdf:about=""><dc:format>image/svg+xml</dc:format><dc:type
           rdf:resource="http://purl.org/dc/dcmitype/StillImage" /><dc:title></dc:title></cc:Work></rdf:RDF></metadata><defs
     id="defs6"><clipPath
       clipPathUnits="userSpaceOnUse"
       id="clipPath20"><path
         d="m 44.28,55.08 228.54,0 0,218.64 -228.54,0 0,-218.64 z"
         id="path22"
         inkscape:connector-curvature="0" /></clipPath><clipPath
       clipPathUnits="userSpaceOnUse"
       id="clipPath28"><path
         d="m 44.28,55.08 228.54,0 0,218.64 -228.54,0 0,-218.64 z"
         id="path30"
         inkscape:connector-curvature="0" /></clipPath></defs><sodipodi:namedview
     pagecolor="#ffffff"
     bordercolor="#666666"
     borderopacity="1"
     objecttolerance="10"
     gridtolerance="10"
     guidetolerance="10"
     inkscape:pageopacity="0"
     inkscape:pageshadow="2"
     inkscape:window-width="1920"
     inkscape:window-height="1032"
     id="namedview4"
     showgrid="false"
     fit-margin-top="0"
     fit-margin-left="0"
     fit-margin-right="0"
     fit-margin-bottom="0"
     inkscape:zoom="1.6792674"
     inkscape:cx="64.883531"
     inkscape:cy="240.53574"
     inkscape:window-x="0"
     inkscape:window-y="26"
     inkscape:window-maximized="1"
     inkscape:current-layer="g10" /><g
     id="g10"
     inkscape:groupmode="layer"
     inkscape:label="in_higher"
     transform="matrix(1.25,0,0,-1.25,-2.085,342.61875)"><g
       id="g16"><g
         id="g18"
         clip-path="url(#clipPath20)" /></g><g
       id="g24"><g
         id="g26"
         clip-path="url(#clipPath28)"><path
           d="m 52.74,265.62 23.52,-92.72 23.51,-2.93 23.51,-0.47 23.51,2.36 23.52,-0.73 23.51,-2.19 23.51,-0.21 23.51,-2.44 23.52,-11.98"
           style="fill:none;stroke:#000000;stroke-width:0.75;stroke-linecap:round;stroke-linejoin:round;stroke-miterlimit:10;stroke-opacity:1;stroke-dasharray:none"
           id="path32"
           inkscape:connector-curvature="0" /><path
           d="m 51.53,265.62 c 0,0.67 0.55,1.22 1.21,1.22 0.67,0 1.22,-0.55 1.22,-1.22 0,-0.67 -0.55,-1.21 -1.22,-1.21 -0.66,0 -1.21,0.54 -1.21,1.21"
           style="fill:none;stroke:#000000;stroke-width:0.75;stroke-linecap:round;stroke-linejoin:round;stroke-miterlimit:10;stroke-opacity:1;stroke-dasharray:none"
           id="path34"
           inkscape:connector-curvature="0" /><path
           d="m 75.04,172.9 c 0,0.66 0.55,1.21 1.22,1.21 0.67,0 1.21,-0.55 1.21,-1.21 0,-0.67 -0.54,-1.22 -1.21,-1.22 -0.67,0 -1.22,0.55 -1.22,1.22"
           style="fill:none;stroke:#000000;stroke-width:0.75;stroke-linecap:round;stroke-linejoin:round;stroke-miterlimit:10;stroke-opacity:1;stroke-dasharray:none"
           id="path36"
           inkscape:connector-curvature="0" /><path
           d="m 98.55,169.97 c 0,0.67 0.55,1.21 1.22,1.21 0.67,0 1.21,-0.54 1.21,-1.21 0,-0.67 -0.54,-1.22 -1.21,-1.22 -0.67,0 -1.22,0.55 -1.22,1.22"
           style="fill:none;stroke:#000000;stroke-width:0.75;stroke-linecap:round;stroke-linejoin:round;stroke-miterlimit:10;stroke-opacity:1;stroke-dasharray:none"
           id="path38"
           inkscape:connector-curvature="0" /><path
           d="m 122.07,169.5 c 0,0.67 0.54,1.21 1.21,1.21 0.67,0 1.22,-0.54 1.22,-1.21 0,-0.67 -0.55,-1.22 -1.22,-1.22 -0.67,0 -1.21,0.55 -1.21,1.22"
           style="fill:none;stroke:#000000;stroke-width:0.75;stroke-linecap:round;stroke-linejoin:round;stroke-miterlimit:10;stroke-opacity:1;stroke-dasharray:none"
           id="path40"
           inkscape:connector-curvature="0" /><path
           d="m 145.58,171.86 c 0,0.67 0.55,1.22 1.21,1.22 0.67,0 1.22,-0.55 1.22,-1.22 0,-0.67 -0.55,-1.21 -1.22,-1.21 -0.66,0 -1.21,0.54 -1.21,1.21"
           style="fill:none;stroke:#000000;stroke-width:0.75;stroke-linecap:round;stroke-linejoin:round;stroke-miterlimit:10;stroke-opacity:1;stroke-dasharray:none"
           id="path42"
           inkscape:connector-curvature="0" /><path
           d="m 169.09,171.13 c 0,0.67 0.55,1.22 1.22,1.22 0.66,0 1.21,-0.55 1.21,-1.22 0,-0.66 -0.55,-1.21 -1.21,-1.21 -0.67,0 -1.22,0.55 -1.22,1.21"
           style="fill:none;stroke:#000000;stroke-width:0.75;stroke-linecap:round;stroke-linejoin:round;stroke-miterlimit:10;stroke-opacity:1;stroke-dasharray:none"
           id="path44"
           inkscape:connector-curvature="0" /><path
           d="m 192.6,168.94 c 0,0.67 0.55,1.22 1.22,1.22 0.67,0 1.21,-0.55 1.21,-1.22 0,-0.66 -0.54,-1.21 -1.21,-1.21 -0.67,0 -1.22,0.55 -1.22,1.21"
           style="fill:none;stroke:#000000;stroke-width:0.75;stroke-linecap:round;stroke-linejoin:round;stroke-miterlimit:10;stroke-opacity:1;stroke-dasharray:none"
           id="path46"
           inkscape:connector-curvature="0" /><path
           d="m 216.12,168.73 c 0,0.66 0.54,1.21 1.21,1.21 0.67,0 1.22,-0.55 1.22,-1.21 0,-0.67 -0.55,-1.22 -1.22,-1.22 -0.67,0 -1.21,0.55 -1.21,1.22"
           style="fill:none;stroke:#000000;stroke-width:0.75;stroke-linecap:round;stroke-linejoin:round;stroke-miterlimit:10;stroke-opacity:1;stroke-dasharray:none"
           id="path48"
           inkscape:connector-curvature="0" /><path
           d="m 239.63,166.29 c 0,0.67 0.55,1.22 1.21,1.22 0.67,0 1.22,-0.55 1.22,-1.22 0,-0.67 -0.55,-1.21 -1.22,-1.21 -0.66,0 -1.21,0.54 -1.21,1.21"
           style="fill:none;stroke:#000000;stroke-width:0.75;stroke-linecap:round;stroke-linejoin:round;stroke-miterlimit:10;stroke-opacity:1;stroke-dasharray:none"
           id="path50"
           inkscape:connector-curvature="0" /><path
           d="m 263.14,154.31 c 0,0.67 0.55,1.21 1.22,1.21 0.66,0 1.21,-0.54 1.21,-1.21 0,-0.67 -0.55,-1.22 -1.21,-1.22 -0.67,0 -1.22,0.55 -1.22,1.22"
           style="fill:none;stroke:#000000;stroke-width:0.75;stroke-linecap:round;stroke-linejoin:round;stroke-miterlimit:10;stroke-opacity:1;stroke-dasharray:none"
           id="path52"
           inkscape:connector-curvature="0" /></g></g><g
       id="g54"><path
         d="m 44.28,85.67 0,179.95"
         style="fill:none;stroke:#000000;stroke-width:0.75;stroke-linecap:round;stroke-linejoin:round;stroke-miterlimit:10;stroke-opacity:1;stroke-dasharray:none"
         id="path56"
         inkscape:connector-curvature="0" /><path
         d="m 44.28,85.67 -5.4,0"
         style="fill:none;stroke:#000000;stroke-width:0.75;stroke-linecap:round;stroke-linejoin:round;stroke-miterlimit:10;stroke-opacity:1;stroke-dasharray:none"
         id="path58"
         inkscape:connector-curvature="0" /><path
         d="m 44.28,130.66 -5.4,0"
         style="fill:none;stroke:#000000;stroke-width:0.75;stroke-linecap:round;stroke-linejoin:round;stroke-miterlimit:10;stroke-opacity:1;stroke-dasharray:none"
         id="path60"
         inkscape:connector-curvature="0" /><path
         d="m 44.28,175.65 -5.4,0"
         style="fill:none;stroke:#000000;stroke-width:0.75;stroke-linecap:round;stroke-linejoin:round;stroke-miterlimit:10;stroke-opacity:1;stroke-dasharray:none"
         id="path62"
         inkscape:connector-curvature="0" /><path
         d="m 44.28,220.63 -5.4,0"
         style="fill:none;stroke:#000000;stroke-width:0.75;stroke-linecap:round;stroke-linejoin:round;stroke-miterlimit:10;stroke-opacity:1;stroke-dasharray:none"
         id="path64"
         inkscape:connector-curvature="0" /><path
         d="m 44.28,265.62 -5.4,0"
         style="fill:none;stroke:#000000;stroke-width:0.75;stroke-linecap:round;stroke-linejoin:round;stroke-miterlimit:10;stroke-opacity:1;stroke-dasharray:none"
         id="path66"
         inkscape:connector-curvature="0" /><text
         transform="matrix(0,1,1,0,31.32,77.33)"
         id="text68"><tspan
           style="font-size:12px;font-variant:normal;font-weight:normal;writing-mode:lr-tb;fill:#000000;fill-opacity:1;fill-rule:nonzero;stroke:none;font-family:Helvetica;-inkscape-font-specification:Helvetica"
           x="0 6.6719999 10.008"
           y="0"
           sodipodi:role="line"
           id="tspan70">0.2</tspan></text>
<text
         transform="matrix(0,1,1,0,31.32,122.32)"
         id="text72"><tspan
           style="font-size:12px;font-variant:normal;font-weight:normal;writing-mode:lr-tb;fill:#000000;fill-opacity:1;fill-rule:nonzero;stroke:none;font-family:Helvetica;-inkscape-font-specification:Helvetica"
           x="0 6.6719999 10.008"
           y="0"
           sodipodi:role="line"
           id="tspan74">0.4</tspan></text>
<text
         transform="matrix(0,1,1,0,31.32,167.31)"
         id="text76"><tspan
           style="font-size:12px;font-variant:normal;font-weight:normal;writing-mode:lr-tb;fill:#000000;fill-opacity:1;fill-rule:nonzero;stroke:none;font-family:Helvetica;-inkscape-font-specification:Helvetica"
           x="0 6.6719999 10.008"
           y="0"
           sodipodi:role="line"
           id="tspan78">0.6</tspan></text>
<text
         transform="matrix(0,1,1,0,31.32,212.29)"
         id="text80"><tspan
           style="font-size:12px;font-variant:normal;font-weight:normal;writing-mode:lr-tb;fill:#000000;fill-opacity:1;fill-rule:nonzero;stroke:none;font-family:Helvetica;-inkscape-font-specification:Helvetica"
           x="0 6.6719999 10.008"
           y="0"
           sodipodi:role="line"
           id="tspan82">0.8</tspan></text>
<text
         transform="matrix(0,1,1,0,31.32,257.28)"
         id="text84"><tspan
           style="font-size:12px;font-variant:normal;font-weight:normal;writing-mode:lr-tb;fill:#000000;fill-opacity:1;fill-rule:nonzero;stroke:none;font-family:Helvetica;-inkscape-font-specification:Helvetica"
           x="0 6.6719999 10.008"
           y="0"
           sodipodi:role="line"
           id="tspan86">1.0</tspan></text>
<path
         d="m 44.28,55.08 228.54,0 0,218.64 -228.54,0 0,-218.64"
         style="fill:none;stroke:#000000;stroke-width:0.75;stroke-linecap:round;stroke-linejoin:round;stroke-miterlimit:10;stroke-opacity:1;stroke-dasharray:none"
         id="path88"
         inkscape:connector-curvature="0" /></g><g
       id="g90"><text
         transform="matrix(1,0,0,-1,69.48,14.04)"
         id="text92"><tspan
           style="font-size:11px;font-variant:normal;font-weight:normal;writing-mode:lr-tb;fill:#000000;fill-opacity:1;fill-rule:nonzero;stroke:none;font-family:Helvetica;-inkscape-font-specification:Helvetica"
           x="0 6.7870002 12.903 16.566 22.066 28.181999 34.298 37.355999 43.472 49.588001 55.703999 58.762001 64.877998 67.935997 70.994003 74.656998 80.773003 89.935997 95.887001 101.112 107.228 113.344 116.402 118.844 124.96 131.076 137.192 140.25 142.692 145.75 151.25 154.308 160.424 166.53999 168.98199 172.645"
           y="0"
           sodipodi:role="line"
           id="tspan94">Percentage of removed identity pairs</tspan></text>
<text
         transform="matrix(0,1,1,0,9.72,70.08)"
         id="text96"><tspan
           style="font-size:11px;font-variant:normal;font-weight:normal;writing-mode:lr-tb;fill:#000000;fill-opacity:1;fill-rule:nonzero;stroke:none;font-family:Helvetica;-inkscape-font-specification:Helvetica"
           x="0 6.7870002 12.903 16.566 22.066 25.124001 28.181999 34.298 37.355999 40.414001 44.077 50.193001 59.355999 62.414001 65.472 67.914001 74.029999 77.087997 80.146004 86.262001 92.377998 94.82 98.483002 103.983 107.041 109.483 115.599 118.657 124.773 127.215 133.33099 139.44701 145.563 149.226 152.284 158.39999 164.51601 170.632 174.295 180.08099 185.58099"
           y="0"
           sodipodi:role="line"
           id="tspan98">Perc. of rem. id. pairs in higher approx.</tspan></text>
</g><g
       id="g100"><path
         d="m 52.74,55.08 211.62,0"
         style="fill:none;stroke:#000000;stroke-width:0.75;stroke-linecap:round;stroke-linejoin:round;stroke-miterlimit:10;stroke-opacity:1;stroke-dasharray:none"
         id="path102"
         inkscape:connector-curvature="0" /><path
         d="m 52.74,55.08 0,-5.4"
         style="fill:none;stroke:#000000;stroke-width:0.75;stroke-linecap:round;stroke-linejoin:round;stroke-miterlimit:10;stroke-opacity:1;stroke-dasharray:none"
         id="path104"
         inkscape:connector-curvature="0" /><path
         d="m 76.26,55.08 0,-5.4"
         style="fill:none;stroke:#000000;stroke-width:0.75;stroke-linecap:round;stroke-linejoin:round;stroke-miterlimit:10;stroke-opacity:1;stroke-dasharray:none"
         id="path106"
         inkscape:connector-curvature="0" /><path
         d="m 99.77,55.08 0,-5.4"
         style="fill:none;stroke:#000000;stroke-width:0.75;stroke-linecap:round;stroke-linejoin:round;stroke-miterlimit:10;stroke-opacity:1;stroke-dasharray:none"
         id="path108"
         inkscape:connector-curvature="0" /><path
         d="m 123.28,55.08 0,-5.4"
         style="fill:none;stroke:#000000;stroke-width:0.75;stroke-linecap:round;stroke-linejoin:round;stroke-miterlimit:10;stroke-opacity:1;stroke-dasharray:none"
         id="path110"
         inkscape:connector-curvature="0" /><path
         d="m 146.79,55.08 0,-5.4"
         style="fill:none;stroke:#000000;stroke-width:0.75;stroke-linecap:round;stroke-linejoin:round;stroke-miterlimit:10;stroke-opacity:1;stroke-dasharray:none"
         id="path112"
         inkscape:connector-curvature="0" /><path
         d="m 170.31,55.08 0,-5.4"
         style="fill:none;stroke:#000000;stroke-width:0.75;stroke-linecap:round;stroke-linejoin:round;stroke-miterlimit:10;stroke-opacity:1;stroke-dasharray:none"
         id="path114"
         inkscape:connector-curvature="0" /><path
         d="m 193.82,55.08 0,-5.4"
         style="fill:none;stroke:#000000;stroke-width:0.75;stroke-linecap:round;stroke-linejoin:round;stroke-miterlimit:10;stroke-opacity:1;stroke-dasharray:none"
         id="path116"
         inkscape:connector-curvature="0" /><path
         d="m 217.33,55.08 0,-5.4"
         style="fill:none;stroke:#000000;stroke-width:0.75;stroke-linecap:round;stroke-linejoin:round;stroke-miterlimit:10;stroke-opacity:1;stroke-dasharray:none"
         id="path118"
         inkscape:connector-curvature="0" /><path
         d="m 240.84,55.08 0,-5.4"
         style="fill:none;stroke:#000000;stroke-width:0.75;stroke-linecap:round;stroke-linejoin:round;stroke-miterlimit:10;stroke-opacity:1;stroke-dasharray:none"
         id="path120"
         inkscape:connector-curvature="0" /><path
         d="m 264.36,55.08 0,-5.4"
         style="fill:none;stroke:#000000;stroke-width:0.75;stroke-linecap:round;stroke-linejoin:round;stroke-miterlimit:10;stroke-opacity:1;stroke-dasharray:none"
         id="path122"
         inkscape:connector-curvature="0" /><text
         transform="matrix(1,0,0,-1,49.41,35.64)"
         id="text124"><tspan
           style="font-size:12px;font-variant:normal;font-weight:normal;writing-mode:lr-tb;fill:#000000;fill-opacity:1;fill-rule:nonzero;stroke:none;font-family:Helvetica;-inkscape-font-specification:Helvetica"
           x="0"
           y="0"
           id="tspan126">0</tspan></text>
<text
         transform="matrix(1,0,0,-1,67.92,35.64)"
         id="text128"><tspan
           style="font-size:12px;font-variant:normal;font-weight:normal;writing-mode:lr-tb;fill:#000000;fill-opacity:1;fill-rule:nonzero;stroke:none;font-family:Helvetica;-inkscape-font-specification:Helvetica"
           x="0 6.6719999 10.008"
           y="0"
           sodipodi:role="line"
           id="tspan130">0.1</tspan></text>
<text
         transform="matrix(1,0,0,-1,114.94,35.64)"
         id="text132"><tspan
           style="font-size:12px;font-variant:normal;font-weight:normal;writing-mode:lr-tb;fill:#000000;fill-opacity:1;fill-rule:nonzero;stroke:none;font-family:Helvetica;-inkscape-font-specification:Helvetica"
           x="0 6.6719999 10.008"
           y="0"
           sodipodi:role="line"
           id="tspan134">0.3</tspan></text>
<text
         transform="matrix(1,0,0,-1,161.97,35.64)"
         id="text136"><tspan
           style="font-size:12px;font-variant:normal;font-weight:normal;writing-mode:lr-tb;fill:#000000;fill-opacity:1;fill-rule:nonzero;stroke:none;font-family:Helvetica;-inkscape-font-specification:Helvetica"
           x="0 6.6719999 10.008"
           y="0"
           sodipodi:role="line"
           id="tspan138">0.5</tspan></text>
<text
         transform="matrix(1,0,0,-1,208.99,35.64)"
         id="text140"><tspan
           style="font-size:12px;font-variant:normal;font-weight:normal;writing-mode:lr-tb;fill:#000000;fill-opacity:1;fill-rule:nonzero;stroke:none;font-family:Helvetica;-inkscape-font-specification:Helvetica"
           x="0 6.6719999 10.008"
           y="0"
           sodipodi:role="line"
           id="tspan142">0.7</tspan></text>
<text
         transform="matrix(1,0,0,-1,256.02,35.64)"
         id="text144"><tspan
           style="font-size:12px;font-variant:normal;font-weight:normal;writing-mode:lr-tb;fill:#000000;fill-opacity:1;fill-rule:nonzero;stroke:none;font-family:Helvetica;-inkscape-font-specification:Helvetica"
           x="0 6.6719999 10.008"
           y="0"
           sodipodi:role="line"
           id="tspan146">0.9</tspan></text>
</g></g></svg>