<?xml version="1.0" encoding="UTF-8" standalone="no"?>
<!-- Created with Inkscape (http://www.inkscape.org/) -->

<svg
   xmlns:dc="http://purl.org/dc/elements/1.1/"
   xmlns:cc="http://creativecommons.org/ns#"
   xmlns:rdf="http://www.w3.org/1999/02/22-rdf-syntax-ns#"
   xmlns:svg="http://www.w3.org/2000/svg"
   xmlns="http://www.w3.org/2000/svg"
   xmlns:sodipodi="http://sodipodi.sourceforge.net/DTD/sodipodi-0.dtd"
   xmlns:inkscape="http://www.inkscape.org/namespaces/inkscape"
   id="svg2"
   version="1.1"
   inkscape:version="0.48.4 r9939"
   width="362.19748"
   height="305.12875"
   xml:space="preserve"
   sodipodi:docname="recall_quality.pdf"><metadata
     id="metadata8"><rdf:RDF><cc:Work
         rdf:about=""><dc:format>image/svg+xml</dc:format><dc:type
           rdf:resource="http://purl.org/dc/dcmitype/StillImage" /><dc:title></dc:title></cc:Work></rdf:RDF></metadata><defs
     id="defs6"><clipPath
       clipPathUnits="userSpaceOnUse"
       id="clipPath20"><path
         d="m 59.04,73.44 206.22,0 0,185.52 -206.22,0 0,-185.52 z"
         id="path22"
         inkscape:connector-curvature="0" /></clipPath><clipPath
       clipPathUnits="userSpaceOnUse"
       id="clipPath28"><path
         d="m 59.04,73.44 206.22,0 0,185.52 -206.22,0 0,-185.52 z"
         id="path30"
         inkscape:connector-curvature="0" /></clipPath><clipPath
       clipPathUnits="userSpaceOnUse"
       id="clipPath98"><path
         d="m 59.04,73.44 206.22,0 0,185.52 -206.22,0 0,-185.52 z"
         id="path100"
         inkscape:connector-curvature="0" /></clipPath><clipPath
       clipPathUnits="userSpaceOnUse"
       id="clipPath172"><path
         d="m 59.04,73.44 206.22,0 0,185.52 -206.22,0 0,-185.52 z"
         id="path174"
         inkscape:connector-curvature="0" /></clipPath></defs><sodipodi:namedview
     pagecolor="#ffffff"
     bordercolor="#666666"
     borderopacity="1"
     objecttolerance="10"
     gridtolerance="10"
     guidetolerance="10"
     inkscape:pageopacity="0"
     inkscape:pageshadow="2"
     inkscape:window-width="640"
     inkscape:window-height="480"
     id="namedview4"
     showgrid="false"
     fit-margin-top="0"
     fit-margin-left="0"
     fit-margin-right="0"
     fit-margin-bottom="0"
     inkscape:zoom="0.59371069"
     inkscape:cx="182.755"
     inkscape:cy="179.71"
     inkscape:window-x="0"
     inkscape:window-y="26"
     inkscape:window-maximized="0"
     inkscape:current-layer="g10" /><g
     id="g10"
     inkscape:groupmode="layer"
     inkscape:label="recall_quality"
     transform="matrix(1.25,0,0,-1.25,-1.62,324.16875)"><g
       id="g16"><g
         id="g18"
         clip-path="url(#clipPath20)" /></g><g
       id="g24"><g
         id="g26"
         clip-path="url(#clipPath28)"><path
           d="m 66.68,252.09 21.21,-107.93 21.22,-22.41 21.22,-1.29 21.21,-7.08 21.22,-0.14 21.21,-2.17 21.22,0.01 21.22,-1.63 21.21,0.08"
           style="fill:none;stroke:#006400;stroke-width:0.75;stroke-linecap:round;stroke-linejoin:round;stroke-miterlimit:10;stroke-opacity:1;stroke-dasharray:none"
           id="path32"
           inkscape:connector-curvature="0" /><path
           d="m 64.28,249.7 4.79,0 0,4.79 -4.79,0 0,-4.79 z"
           style="fill:none;stroke:#006400;stroke-width:0.75;stroke-linecap:round;stroke-linejoin:round;stroke-miterlimit:10;stroke-opacity:1;stroke-dasharray:none"
           id="path34"
           inkscape:connector-curvature="0" /><path
           d="m 85.5,141.77 4.79,0 0,4.79 -4.79,0 0,-4.79 z"
           style="fill:none;stroke:#006400;stroke-width:0.75;stroke-linecap:round;stroke-linejoin:round;stroke-miterlimit:10;stroke-opacity:1;stroke-dasharray:none"
           id="path36"
           inkscape:connector-curvature="0" /><path
           d="m 106.72,119.36 4.79,0 0,4.79 -4.79,0 0,-4.79 z"
           style="fill:none;stroke:#006400;stroke-width:0.75;stroke-linecap:round;stroke-linejoin:round;stroke-miterlimit:10;stroke-opacity:1;stroke-dasharray:none"
           id="path38"
           inkscape:connector-curvature="0" /><path
           d="m 127.93,118.07 4.79,0 0,4.79 -4.79,0 0,-4.79 z"
           style="fill:none;stroke:#006400;stroke-width:0.75;stroke-linecap:round;stroke-linejoin:round;stroke-miterlimit:10;stroke-opacity:1;stroke-dasharray:none"
           id="path40"
           inkscape:connector-curvature="0" /><path
           d="m 149.15,110.99 4.79,0 0,4.79 -4.79,0 0,-4.79 z"
           style="fill:none;stroke:#006400;stroke-width:0.75;stroke-linecap:round;stroke-linejoin:round;stroke-miterlimit:10;stroke-opacity:1;stroke-dasharray:none"
           id="path42"
           inkscape:connector-curvature="0" /><path
           d="m 170.37,110.84 4.79,0 0,4.79 -4.79,0 0,-4.79 z"
           style="fill:none;stroke:#006400;stroke-width:0.75;stroke-linecap:round;stroke-linejoin:round;stroke-miterlimit:10;stroke-opacity:1;stroke-dasharray:none"
           id="path44"
           inkscape:connector-curvature="0" /><path
           d="m 191.58,108.68 4.79,0 0,4.79 -4.79,0 0,-4.79 z"
           style="fill:none;stroke:#006400;stroke-width:0.75;stroke-linecap:round;stroke-linejoin:round;stroke-miterlimit:10;stroke-opacity:1;stroke-dasharray:none"
           id="path46"
           inkscape:connector-curvature="0" /><path
           d="m 212.8,108.69 4.79,0 0,4.79 -4.79,0 0,-4.79 z"
           style="fill:none;stroke:#006400;stroke-width:0.75;stroke-linecap:round;stroke-linejoin:round;stroke-miterlimit:10;stroke-opacity:1;stroke-dasharray:none"
           id="path48"
           inkscape:connector-curvature="0" /><path
           d="m 234.01,107.06 4.79,0 0,4.79 -4.79,0 0,-4.79 z"
           style="fill:none;stroke:#006400;stroke-width:0.75;stroke-linecap:round;stroke-linejoin:round;stroke-miterlimit:10;stroke-opacity:1;stroke-dasharray:none"
           id="path50"
           inkscape:connector-curvature="0" /><path
           d="m 255.23,107.14 4.79,0 0,4.79 -4.79,0 0,-4.79 z"
           style="fill:none;stroke:#006400;stroke-width:0.75;stroke-linecap:round;stroke-linejoin:round;stroke-miterlimit:10;stroke-opacity:1;stroke-dasharray:none"
           id="path52"
           inkscape:connector-curvature="0" /></g></g><g
       id="g54"><path
         d="m 59.04,80.31 0,171.78"
         style="fill:none;stroke:#000000;stroke-width:0.75;stroke-linecap:round;stroke-linejoin:round;stroke-miterlimit:10;stroke-opacity:1;stroke-dasharray:none"
         id="path56"
         inkscape:connector-curvature="0" /><path
         d="m 59.04,80.31 -7.2,0"
         style="fill:none;stroke:#000000;stroke-width:0.75;stroke-linecap:round;stroke-linejoin:round;stroke-miterlimit:10;stroke-opacity:1;stroke-dasharray:none"
         id="path58"
         inkscape:connector-curvature="0" /><path
         d="m 59.04,114.67 -7.2,0"
         style="fill:none;stroke:#000000;stroke-width:0.75;stroke-linecap:round;stroke-linejoin:round;stroke-miterlimit:10;stroke-opacity:1;stroke-dasharray:none"
         id="path60"
         inkscape:connector-curvature="0" /><path
         d="m 59.04,149.02 -7.2,0"
         style="fill:none;stroke:#000000;stroke-width:0.75;stroke-linecap:round;stroke-linejoin:round;stroke-miterlimit:10;stroke-opacity:1;stroke-dasharray:none"
         id="path62"
         inkscape:connector-curvature="0" /><path
         d="m 59.04,183.38 -7.2,0"
         style="fill:none;stroke:#000000;stroke-width:0.75;stroke-linecap:round;stroke-linejoin:round;stroke-miterlimit:10;stroke-opacity:1;stroke-dasharray:none"
         id="path64"
         inkscape:connector-curvature="0" /><path
         d="m 59.04,217.73 -7.2,0"
         style="fill:none;stroke:#000000;stroke-width:0.75;stroke-linecap:round;stroke-linejoin:round;stroke-miterlimit:10;stroke-opacity:1;stroke-dasharray:none"
         id="path66"
         inkscape:connector-curvature="0" /><path
         d="m 59.04,252.09 -7.2,0"
         style="fill:none;stroke:#000000;stroke-width:0.75;stroke-linecap:round;stroke-linejoin:round;stroke-miterlimit:10;stroke-opacity:1;stroke-dasharray:none"
         id="path68"
         inkscape:connector-curvature="0" /><text
         transform="matrix(0,1,1,0,41.76,69.19)"
         id="text70"><tspan
           style="font-size:16px;font-variant:normal;font-weight:normal;writing-mode:lr-tb;fill:#000000;fill-opacity:1;fill-rule:nonzero;stroke:none;font-family:Helvetica;-inkscape-font-specification:Helvetica"
           x="0 8.8959999 13.344"
           y="0"
           sodipodi:role="line"
           id="tspan72">0.0</tspan></text>
<text
         transform="matrix(0,1,1,0,41.76,137.9)"
         id="text74"><tspan
           style="font-size:16px;font-variant:normal;font-weight:normal;writing-mode:lr-tb;fill:#000000;fill-opacity:1;fill-rule:nonzero;stroke:none;font-family:Helvetica;-inkscape-font-specification:Helvetica"
           x="0 8.8959999 13.344"
           y="0"
           sodipodi:role="line"
           id="tspan76">0.4</tspan></text>
<text
         transform="matrix(0,1,1,0,41.76,206.61)"
         id="text78"><tspan
           style="font-size:16px;font-variant:normal;font-weight:normal;writing-mode:lr-tb;fill:#000000;fill-opacity:1;fill-rule:nonzero;stroke:none;font-family:Helvetica;-inkscape-font-specification:Helvetica"
           x="0 8.8959999 13.344"
           y="0"
           sodipodi:role="line"
           id="tspan80">0.8</tspan></text>
<path
         d="m 59.04,73.44 206.22,0 0,185.52 -206.22,0 0,-185.52"
         style="fill:none;stroke:#000000;stroke-width:0.75;stroke-linecap:round;stroke-linejoin:round;stroke-miterlimit:10;stroke-opacity:1;stroke-dasharray:none"
         id="path82"
         inkscape:connector-curvature="0" /></g><g
       id="g84"><text
         transform="matrix(1,0,0,-1,32.59,18.72)"
         id="text86"><tspan
           style="font-size:16px;font-variant:normal;font-weight:normal;writing-mode:lr-tb;fill:#000000;fill-opacity:1;fill-rule:nonzero;stroke:none;font-family:Helvetica;-inkscape-font-specification:Helvetica"
           x="0 9.8719997 18.768 24.096001 32.096001 40.992001 49.888 54.335999 63.231998 72.127998 81.024002 85.472 94.367996 98.816002 103.264 108.592 117.488 130.81599 139.472 147.07201 155.968 164.864 169.312 172.864 181.75999 190.65601 199.552 204 207.552 212 220 224.448 233.34399 242.24001 245.79201 251.12"
           y="0"
           sodipodi:role="line"
           id="tspan88">Percentage of removed identity pairs</tspan></text>
<text
         transform="matrix(0,1,1,0,12.96,106.62)"
         id="text90"><tspan
           style="font-size:16px;font-variant:normal;font-weight:normal;writing-mode:lr-tb;fill:#000000;fill-opacity:1;fill-rule:nonzero;stroke:none;font-family:Helvetica;-inkscape-font-specification:Helvetica"
           x="0 11.552 20.448 28.448 37.344002 40.896 44.448002 48.896 52.448002 61.344002 65.792 74.688004 83.584 88.912003 96.912003 105.808 114.704"
           y="0"
           sodipodi:role="line"
           id="tspan92">Recall in percent</tspan></text>
</g><g
       id="g94"><g
         id="g96"
         clip-path="url(#clipPath98)"><path
           d="m 66.68,252.09 21.21,-4.09 21.22,-2.78 21.22,-2.99 21.21,-2.21 21.22,-1 21.21,0.84 21.22,-4.8 21.22,-2.38 21.21,-14.85"
           style="fill:none;stroke:#ff0000;stroke-width:0.75;stroke-linecap:round;stroke-linejoin:round;stroke-miterlimit:10;stroke-opacity:1;stroke-dasharray:none"
           id="path102"
           inkscape:connector-curvature="0" /><path
           d="m 63.98,252.09 c 0,1.48 1.21,2.7 2.7,2.7 1.48,0 2.7,-1.22 2.7,-2.7 0,-1.49 -1.22,-2.7 -2.7,-2.7 -1.49,0 -2.7,1.21 -2.7,2.7"
           style="fill:none;stroke:#ff0000;stroke-width:0.75;stroke-linecap:round;stroke-linejoin:round;stroke-miterlimit:10;stroke-opacity:1;stroke-dasharray:none"
           id="path104"
           inkscape:connector-curvature="0" /><path
           d="m 85.19,248 c 0,1.48 1.22,2.7 2.7,2.7 1.49,0 2.7,-1.22 2.7,-2.7 0,-1.49 -1.21,-2.7 -2.7,-2.7 -1.48,0 -2.7,1.21 -2.7,2.7"
           style="fill:none;stroke:#ff0000;stroke-width:0.75;stroke-linecap:round;stroke-linejoin:round;stroke-miterlimit:10;stroke-opacity:1;stroke-dasharray:none"
           id="path106"
           inkscape:connector-curvature="0" /><path
           d="m 106.41,245.22 c 0,1.49 1.21,2.7 2.7,2.7 1.48,0 2.7,-1.21 2.7,-2.7 0,-1.48 -1.22,-2.7 -2.7,-2.7 -1.49,0 -2.7,1.22 -2.7,2.7"
           style="fill:none;stroke:#ff0000;stroke-width:0.75;stroke-linecap:round;stroke-linejoin:round;stroke-miterlimit:10;stroke-opacity:1;stroke-dasharray:none"
           id="path108"
           inkscape:connector-curvature="0" /><path
           d="m 127.63,242.23 c 0,1.48 1.21,2.7 2.7,2.7 1.48,0 2.7,-1.22 2.7,-2.7 0,-1.49 -1.22,-2.7 -2.7,-2.7 -1.49,0 -2.7,1.21 -2.7,2.7"
           style="fill:none;stroke:#ff0000;stroke-width:0.75;stroke-linecap:round;stroke-linejoin:round;stroke-miterlimit:10;stroke-opacity:1;stroke-dasharray:none"
           id="path110"
           inkscape:connector-curvature="0" /><path
           d="m 148.84,240.02 c 0,1.49 1.22,2.7 2.7,2.7 1.49,0 2.7,-1.21 2.7,-2.7 0,-1.48 -1.21,-2.7 -2.7,-2.7 -1.48,0 -2.7,1.22 -2.7,2.7"
           style="fill:none;stroke:#ff0000;stroke-width:0.75;stroke-linecap:round;stroke-linejoin:round;stroke-miterlimit:10;stroke-opacity:1;stroke-dasharray:none"
           id="path112"
           inkscape:connector-curvature="0" /><path
           d="m 170.06,239.02 c 0,1.49 1.21,2.7 2.7,2.7 1.48,0 2.7,-1.21 2.7,-2.7 0,-1.48 -1.22,-2.7 -2.7,-2.7 -1.49,0 -2.7,1.22 -2.7,2.7"
           style="fill:none;stroke:#ff0000;stroke-width:0.75;stroke-linecap:round;stroke-linejoin:round;stroke-miterlimit:10;stroke-opacity:1;stroke-dasharray:none"
           id="path114"
           inkscape:connector-curvature="0" /><path
           d="m 191.27,239.86 c 0,1.48 1.22,2.7 2.7,2.7 1.49,0 2.7,-1.22 2.7,-2.7 0,-1.49 -1.21,-2.7 -2.7,-2.7 -1.48,0 -2.7,1.21 -2.7,2.7"
           style="fill:none;stroke:#ff0000;stroke-width:0.75;stroke-linecap:round;stroke-linejoin:round;stroke-miterlimit:10;stroke-opacity:1;stroke-dasharray:none"
           id="path116"
           inkscape:connector-curvature="0" /><path
           d="m 212.49,235.06 c 0,1.49 1.22,2.7 2.7,2.7 1.49,0 2.7,-1.21 2.7,-2.7 0,-1.48 -1.21,-2.7 -2.7,-2.7 -1.48,0 -2.7,1.22 -2.7,2.7"
           style="fill:none;stroke:#ff0000;stroke-width:0.75;stroke-linecap:round;stroke-linejoin:round;stroke-miterlimit:10;stroke-opacity:1;stroke-dasharray:none"
           id="path118"
           inkscape:connector-curvature="0" /><path
           d="m 233.71,232.68 c 0,1.48 1.21,2.7 2.7,2.7 1.48,0 2.7,-1.22 2.7,-2.7 0,-1.49 -1.22,-2.7 -2.7,-2.7 -1.49,0 -2.7,1.21 -2.7,2.7"
           style="fill:none;stroke:#ff0000;stroke-width:0.75;stroke-linecap:round;stroke-linejoin:round;stroke-miterlimit:10;stroke-opacity:1;stroke-dasharray:none"
           id="path120"
           inkscape:connector-curvature="0" /><path
           d="m 254.92,217.83 c 0,1.48 1.22,2.7 2.7,2.7 1.49,0 2.7,-1.22 2.7,-2.7 0,-1.49 -1.21,-2.7 -2.7,-2.7 -1.48,0 -2.7,1.21 -2.7,2.7"
           style="fill:none;stroke:#ff0000;stroke-width:0.75;stroke-linecap:round;stroke-linejoin:round;stroke-miterlimit:10;stroke-opacity:1;stroke-dasharray:none"
           id="path122"
           inkscape:connector-curvature="0" /></g></g><g
       id="g124"><path
         d="m 66.68,73.44 190.94,0"
         style="fill:none;stroke:#000000;stroke-width:0.75;stroke-linecap:round;stroke-linejoin:round;stroke-miterlimit:10;stroke-opacity:1;stroke-dasharray:none"
         id="path126"
         inkscape:connector-curvature="0" /><path
         d="m 66.68,73.44 0,-7.2"
         style="fill:none;stroke:#000000;stroke-width:0.75;stroke-linecap:round;stroke-linejoin:round;stroke-miterlimit:10;stroke-opacity:1;stroke-dasharray:none"
         id="path128"
         inkscape:connector-curvature="0" /><path
         d="m 87.89,73.44 0,-7.2"
         style="fill:none;stroke:#000000;stroke-width:0.75;stroke-linecap:round;stroke-linejoin:round;stroke-miterlimit:10;stroke-opacity:1;stroke-dasharray:none"
         id="path130"
         inkscape:connector-curvature="0" /><path
         d="m 109.11,73.44 0,-7.2"
         style="fill:none;stroke:#000000;stroke-width:0.75;stroke-linecap:round;stroke-linejoin:round;stroke-miterlimit:10;stroke-opacity:1;stroke-dasharray:none"
         id="path132"
         inkscape:connector-curvature="0" /><path
         d="m 130.33,73.44 0,-7.2"
         style="fill:none;stroke:#000000;stroke-width:0.75;stroke-linecap:round;stroke-linejoin:round;stroke-miterlimit:10;stroke-opacity:1;stroke-dasharray:none"
         id="path134"
         inkscape:connector-curvature="0" /><path
         d="m 151.54,73.44 0,-7.2"
         style="fill:none;stroke:#000000;stroke-width:0.75;stroke-linecap:round;stroke-linejoin:round;stroke-miterlimit:10;stroke-opacity:1;stroke-dasharray:none"
         id="path136"
         inkscape:connector-curvature="0" /><path
         d="m 172.76,73.44 0,-7.2"
         style="fill:none;stroke:#000000;stroke-width:0.75;stroke-linecap:round;stroke-linejoin:round;stroke-miterlimit:10;stroke-opacity:1;stroke-dasharray:none"
         id="path138"
         inkscape:connector-curvature="0" /><path
         d="m 193.97,73.44 0,-7.2"
         style="fill:none;stroke:#000000;stroke-width:0.75;stroke-linecap:round;stroke-linejoin:round;stroke-miterlimit:10;stroke-opacity:1;stroke-dasharray:none"
         id="path140"
         inkscape:connector-curvature="0" /><path
         d="m 215.19,73.44 0,-7.2"
         style="fill:none;stroke:#000000;stroke-width:0.75;stroke-linecap:round;stroke-linejoin:round;stroke-miterlimit:10;stroke-opacity:1;stroke-dasharray:none"
         id="path142"
         inkscape:connector-curvature="0" /><path
         d="m 236.41,73.44 0,-7.2"
         style="fill:none;stroke:#000000;stroke-width:0.75;stroke-linecap:round;stroke-linejoin:round;stroke-miterlimit:10;stroke-opacity:1;stroke-dasharray:none"
         id="path144"
         inkscape:connector-curvature="0" /><path
         d="m 257.62,73.44 0,-7.2"
         style="fill:none;stroke:#000000;stroke-width:0.75;stroke-linecap:round;stroke-linejoin:round;stroke-miterlimit:10;stroke-opacity:1;stroke-dasharray:none"
         id="path146"
         inkscape:connector-curvature="0" /><text
         transform="matrix(1,0,0,-1,62.23,47.52)"
         id="text148"><tspan
           style="font-size:16px;font-variant:normal;font-weight:normal;writing-mode:lr-tb;fill:#000000;fill-opacity:1;fill-rule:nonzero;stroke:none;font-family:Helvetica;-inkscape-font-specification:Helvetica"
           x="0"
           y="0"
           id="tspan150">0</tspan></text>
<text
         transform="matrix(1,0,0,-1,97.99,47.52)"
         id="text152"><tspan
           style="font-size:16px;font-variant:normal;font-weight:normal;writing-mode:lr-tb;fill:#000000;fill-opacity:1;fill-rule:nonzero;stroke:none;font-family:Helvetica;-inkscape-font-specification:Helvetica"
           x="0 8.8959999 13.344"
           y="0"
           sodipodi:role="line"
           id="tspan154">0.2</tspan></text>
<text
         transform="matrix(1,0,0,-1,140.42,47.52)"
         id="text156"><tspan
           style="font-size:16px;font-variant:normal;font-weight:normal;writing-mode:lr-tb;fill:#000000;fill-opacity:1;fill-rule:nonzero;stroke:none;font-family:Helvetica;-inkscape-font-specification:Helvetica"
           x="0 8.8959999 13.344"
           y="0"
           sodipodi:role="line"
           id="tspan158">0.4</tspan></text>
<text
         transform="matrix(1,0,0,-1,182.85,47.52)"
         id="text160"><tspan
           style="font-size:16px;font-variant:normal;font-weight:normal;writing-mode:lr-tb;fill:#000000;fill-opacity:1;fill-rule:nonzero;stroke:none;font-family:Helvetica;-inkscape-font-specification:Helvetica"
           x="0 8.8959999 13.344"
           y="0"
           sodipodi:role="line"
           id="tspan162">0.6</tspan></text>
<text
         transform="matrix(1,0,0,-1,225.29,47.52)"
         id="text164"><tspan
           style="font-size:16px;font-variant:normal;font-weight:normal;writing-mode:lr-tb;fill:#000000;fill-opacity:1;fill-rule:nonzero;stroke:none;font-family:Helvetica;-inkscape-font-specification:Helvetica"
           x="0 8.8959999 13.344"
           y="0"
           sodipodi:role="line"
           id="tspan166">0.8</tspan></text>
</g><g
       id="g168"><g
         id="g170"
         clip-path="url(#clipPath172)"><path
           d="m 66.68,169.47 21.21,-49.2 21.22,-7.25 21.22,-0.92 21.21,-1.46 21.22,-0.46 21.21,-0.38 21.22,-0.26 21.22,-0.29 21.21,-0.12"
           style="fill:none;stroke:#000000;stroke-width:0.75;stroke-linecap:round;stroke-linejoin:round;stroke-miterlimit:10;stroke-opacity:1;stroke-dasharray:2.25, 3.75;stroke-dashoffset:0"
           id="path176"
           inkscape:connector-curvature="0" /></g></g></g></svg>