<?xml version="1.0" encoding="UTF-8" standalone="no"?>
<!-- Created with Inkscape (http://www.inkscape.org/) -->

<svg
   xmlns:dc="http://purl.org/dc/elements/1.1/"
   xmlns:cc="http://creativecommons.org/ns#"
   xmlns:rdf="http://www.w3.org/1999/02/22-rdf-syntax-ns#"
   xmlns:svg="http://www.w3.org/2000/svg"
   xmlns="http://www.w3.org/2000/svg"
   xmlns:sodipodi="http://sodipodi.sourceforge.net/DTD/sodipodi-0.dtd"
   xmlns:inkscape="http://www.inkscape.org/namespaces/inkscape"
   id="svg2"
   version="1.1"
   inkscape:version="0.48.4 r9939"
   width="339.36749"
   height="328.06625"
   xml:space="preserve"
   sodipodi:docname="recall_quality.pdf"><metadata
     id="metadata8"><rdf:RDF><cc:Work
         rdf:about=""><dc:format>image/svg+xml</dc:format><dc:type
           rdf:resource="http://purl.org/dc/dcmitype/StillImage" /><dc:title></dc:title></cc:Work></rdf:RDF></metadata><defs
     id="defs6"><clipPath
       clipPathUnits="userSpaceOnUse"
       id="clipPath20"><path
         d="m 44.28,55.08 228.54,0 0,218.64 -228.54,0 0,-218.64 z"
         id="path22"
         inkscape:connector-curvature="0" /></clipPath><clipPath
       clipPathUnits="userSpaceOnUse"
       id="clipPath28"><path
         d="m 44.28,55.08 228.54,0 0,218.64 -228.54,0 0,-218.64 z"
         id="path30"
         inkscape:connector-curvature="0" /></clipPath><clipPath
       clipPathUnits="userSpaceOnUse"
       id="clipPath110"><path
         d="m 44.28,55.08 228.54,0 0,218.64 -228.54,0 0,-218.64 z"
         id="path112"
         inkscape:connector-curvature="0" /></clipPath></defs><sodipodi:namedview
     pagecolor="#ffffff"
     bordercolor="#666666"
     borderopacity="1"
     objecttolerance="10"
     gridtolerance="10"
     guidetolerance="10"
     inkscape:pageopacity="0"
     inkscape:pageshadow="2"
     inkscape:window-width="1455"
     inkscape:window-height="859"
     id="namedview4"
     showgrid="false"
     fit-margin-top="0"
     fit-margin-left="0"
     fit-margin-right="0"
     fit-margin-bottom="0"
     inkscape:zoom="1.6792674"
     inkscape:cx="211.75578"
     inkscape:cy="207.97509"
     inkscape:window-x="222"
     inkscape:window-y="86"
     inkscape:window-maximized="0"
     inkscape:current-layer="g10" /><g
     id="g10"
     inkscape:groupmode="layer"
     inkscape:label="recall_quality"
     transform="matrix(1.25,0,0,-1.25,-2.12625,342.61875)"><g
       id="g16"><g
         id="g18"
         clip-path="url(#clipPath20)" /></g><g
       id="g24"><g
         id="g26"
         clip-path="url(#clipPath28)"><path
           d="m 52.74,265.62 23.52,-127.19 23.51,-26.42 23.51,-1.51 23.51,-8.35 23.52,-0.17 23.51,-2.55 23.51,0.01 23.51,-1.92 23.52,0.1"
           style="fill:none;stroke:#006400;stroke-width:0.75;stroke-linecap:round;stroke-linejoin:round;stroke-miterlimit:10;stroke-opacity:1;stroke-dasharray:none"
           id="path32"
           inkscape:connector-curvature="0" /><path
           d="m 51.67,264.55 2.15,0 0,2.15 -2.15,0 0,-2.15 z"
           style="fill:none;stroke:#006400;stroke-width:0.75;stroke-linecap:round;stroke-linejoin:round;stroke-miterlimit:10;stroke-opacity:1;stroke-dasharray:none"
           id="path34"
           inkscape:connector-curvature="0" /><path
           d="m 75.18,137.35 2.15,0 0,2.15 -2.15,0 0,-2.15 z"
           style="fill:none;stroke:#006400;stroke-width:0.75;stroke-linecap:round;stroke-linejoin:round;stroke-miterlimit:10;stroke-opacity:1;stroke-dasharray:none"
           id="path36"
           inkscape:connector-curvature="0" /><path
           d="m 98.69,110.94 2.15,0 0,2.15 -2.15,0 0,-2.15 z"
           style="fill:none;stroke:#006400;stroke-width:0.75;stroke-linecap:round;stroke-linejoin:round;stroke-miterlimit:10;stroke-opacity:1;stroke-dasharray:none"
           id="path38"
           inkscape:connector-curvature="0" /><path
           d="m 122.2,109.42 2.15,0 0,2.15 -2.15,0 0,-2.15 z"
           style="fill:none;stroke:#006400;stroke-width:0.75;stroke-linecap:round;stroke-linejoin:round;stroke-miterlimit:10;stroke-opacity:1;stroke-dasharray:none"
           id="path40"
           inkscape:connector-curvature="0" /><path
           d="m 145.72,101.08 2.15,0 0,2.15 -2.15,0 0,-2.15 z"
           style="fill:none;stroke:#006400;stroke-width:0.75;stroke-linecap:round;stroke-linejoin:round;stroke-miterlimit:10;stroke-opacity:1;stroke-dasharray:none"
           id="path42"
           inkscape:connector-curvature="0" /><path
           d="m 169.23,100.9 2.15,0 0,2.15 -2.15,0 0,-2.15 z"
           style="fill:none;stroke:#006400;stroke-width:0.75;stroke-linecap:round;stroke-linejoin:round;stroke-miterlimit:10;stroke-opacity:1;stroke-dasharray:none"
           id="path44"
           inkscape:connector-curvature="0" /><path
           d="m 192.74,98.35 2.15,0 0,2.15 -2.15,0 0,-2.15 z"
           style="fill:none;stroke:#006400;stroke-width:0.75;stroke-linecap:round;stroke-linejoin:round;stroke-miterlimit:10;stroke-opacity:1;stroke-dasharray:none"
           id="path46"
           inkscape:connector-curvature="0" /><path
           d="m 216.25,98.36 2.15,0 0,2.15 -2.15,0 0,-2.15 z"
           style="fill:none;stroke:#006400;stroke-width:0.75;stroke-linecap:round;stroke-linejoin:round;stroke-miterlimit:10;stroke-opacity:1;stroke-dasharray:none"
           id="path48"
           inkscape:connector-curvature="0" /><path
           d="m 239.77,96.44 2.15,0 0,2.15 -2.15,0 0,-2.15 z"
           style="fill:none;stroke:#006400;stroke-width:0.75;stroke-linecap:round;stroke-linejoin:round;stroke-miterlimit:10;stroke-opacity:1;stroke-dasharray:none"
           id="path50"
           inkscape:connector-curvature="0" /><path
           d="m 263.28,96.54 2.15,0 0,2.15 -2.15,0 0,-2.15 z"
           style="fill:none;stroke:#006400;stroke-width:0.75;stroke-linecap:round;stroke-linejoin:round;stroke-miterlimit:10;stroke-opacity:1;stroke-dasharray:none"
           id="path52"
           inkscape:connector-curvature="0" /></g></g><g
       id="g54"><path
         d="m 44.28,63.18 0,202.44"
         style="fill:none;stroke:#000000;stroke-width:0.75;stroke-linecap:round;stroke-linejoin:round;stroke-miterlimit:10;stroke-opacity:1;stroke-dasharray:none"
         id="path56"
         inkscape:connector-curvature="0" /><path
         d="m 44.28,63.18 -5.4,0"
         style="fill:none;stroke:#000000;stroke-width:0.75;stroke-linecap:round;stroke-linejoin:round;stroke-miterlimit:10;stroke-opacity:1;stroke-dasharray:none"
         id="path58"
         inkscape:connector-curvature="0" /><path
         d="m 44.28,103.67 -5.4,0"
         style="fill:none;stroke:#000000;stroke-width:0.75;stroke-linecap:round;stroke-linejoin:round;stroke-miterlimit:10;stroke-opacity:1;stroke-dasharray:none"
         id="path60"
         inkscape:connector-curvature="0" /><path
         d="m 44.28,144.16 -5.4,0"
         style="fill:none;stroke:#000000;stroke-width:0.75;stroke-linecap:round;stroke-linejoin:round;stroke-miterlimit:10;stroke-opacity:1;stroke-dasharray:none"
         id="path62"
         inkscape:connector-curvature="0" /><path
         d="m 44.28,184.64 -5.4,0"
         style="fill:none;stroke:#000000;stroke-width:0.75;stroke-linecap:round;stroke-linejoin:round;stroke-miterlimit:10;stroke-opacity:1;stroke-dasharray:none"
         id="path64"
         inkscape:connector-curvature="0" /><path
         d="m 44.28,225.13 -5.4,0"
         style="fill:none;stroke:#000000;stroke-width:0.75;stroke-linecap:round;stroke-linejoin:round;stroke-miterlimit:10;stroke-opacity:1;stroke-dasharray:none"
         id="path66"
         inkscape:connector-curvature="0" /><path
         d="m 44.28,265.62 -5.4,0"
         style="fill:none;stroke:#000000;stroke-width:0.75;stroke-linecap:round;stroke-linejoin:round;stroke-miterlimit:10;stroke-opacity:1;stroke-dasharray:none"
         id="path68"
         inkscape:connector-curvature="0" /><text
         transform="matrix(0,1,1,0,31.32,54.84)"
         id="text70"><tspan
           style="font-size:12px;font-variant:normal;font-weight:normal;writing-mode:lr-tb;fill:#000000;fill-opacity:1;fill-rule:nonzero;stroke:none;font-family:Helvetica;-inkscape-font-specification:Helvetica"
           x="0 6.6719999 10.008"
           y="0"
           sodipodi:role="line"
           id="tspan72">0.0</tspan></text>
<text
         transform="matrix(0,1,1,0,31.32,95.33)"
         id="text74"><tspan
           style="font-size:12px;font-variant:normal;font-weight:normal;writing-mode:lr-tb;fill:#000000;fill-opacity:1;fill-rule:nonzero;stroke:none;font-family:Helvetica;-inkscape-font-specification:Helvetica"
           x="0 6.6719999 10.008"
           y="0"
           sodipodi:role="line"
           id="tspan76">0.2</tspan></text>
<text
         transform="matrix(0,1,1,0,31.32,135.82)"
         id="text78"><tspan
           style="font-size:12px;font-variant:normal;font-weight:normal;writing-mode:lr-tb;fill:#000000;fill-opacity:1;fill-rule:nonzero;stroke:none;font-family:Helvetica;-inkscape-font-specification:Helvetica"
           x="0 6.6719999 10.008"
           y="0"
           sodipodi:role="line"
           id="tspan80">0.4</tspan></text>
<text
         transform="matrix(0,1,1,0,31.32,176.3)"
         id="text82"><tspan
           style="font-size:12px;font-variant:normal;font-weight:normal;writing-mode:lr-tb;fill:#000000;fill-opacity:1;fill-rule:nonzero;stroke:none;font-family:Helvetica;-inkscape-font-specification:Helvetica"
           x="0 6.6719999 10.008"
           y="0"
           sodipodi:role="line"
           id="tspan84">0.6</tspan></text>
<text
         transform="matrix(0,1,1,0,31.32,216.79)"
         id="text86"><tspan
           style="font-size:12px;font-variant:normal;font-weight:normal;writing-mode:lr-tb;fill:#000000;fill-opacity:1;fill-rule:nonzero;stroke:none;font-family:Helvetica;-inkscape-font-specification:Helvetica"
           x="0 6.6719999 10.008"
           y="0"
           sodipodi:role="line"
           id="tspan88">0.8</tspan></text>
<text
         transform="matrix(0,1,1,0,31.32,257.28)"
         id="text90"><tspan
           style="font-size:12px;font-variant:normal;font-weight:normal;writing-mode:lr-tb;fill:#000000;fill-opacity:1;fill-rule:nonzero;stroke:none;font-family:Helvetica;-inkscape-font-specification:Helvetica"
           x="0 6.6719999 10.008"
           y="0"
           sodipodi:role="line"
           id="tspan92">1.0</tspan></text>
<path
         d="m 44.28,55.08 228.54,0 0,218.64 -228.54,0 0,-218.64"
         style="fill:none;stroke:#000000;stroke-width:0.75;stroke-linecap:round;stroke-linejoin:round;stroke-miterlimit:10;stroke-opacity:1;stroke-dasharray:none"
         id="path94"
         inkscape:connector-curvature="0" /></g><g
       id="g96"><text
         transform="matrix(1,0,0,-1,84.77,14.04)"
         id="text98"><tspan
           style="font-size:11px;font-variant:normal;font-weight:normal;writing-mode:lr-tb;fill:#000000;fill-opacity:1;fill-rule:nonzero;stroke:none;font-family:Helvetica;-inkscape-font-specification:Helvetica"
           x="0 6.7870002 12.903 16.566 22.066 25.124001 28.181999 34.298 37.355999 40.414001 44.077 50.193001 59.355999 65.306999 70.531998 76.648003 82.764 85.821999 88.264 94.379997 100.496 106.612 109.67 112.112 115.17 120.67 123.728 129.84399 135.96001 138.40199 142.065"
           y="0"
           sodipodi:role="line"
           id="tspan100">Perc. of removed identity pairs</tspan></text>
<text
         transform="matrix(0,1,1,0,9.72,123.44)"
         id="text102"><tspan
           style="font-size:11px;font-variant:normal;font-weight:normal;writing-mode:lr-tb;fill:#000000;fill-opacity:1;fill-rule:nonzero;stroke:none;font-family:Helvetica;-inkscape-font-specification:Helvetica"
           x="0 7.9419999 14.058 19.558001 25.674 28.115999 30.558001 33.616001 36.057999 42.174 45.231998 51.348 57.464001 61.126999 66.626999 72.742996 78.859001"
           y="0"
           sodipodi:role="line"
           id="tspan104">Recall in percent</tspan></text>
</g><g
       id="g106"><g
         id="g108"
         clip-path="url(#clipPath110)"><path
           d="m 52.74,265.62 23.52,-4.82 23.51,-3.27 23.51,-3.53 23.51,-2.6 23.52,-1.18 23.51,0.99 23.51,-5.65 23.51,-2.82 23.52,-17.5"
           style="fill:none;stroke:#8b0000;stroke-width:0.75;stroke-linecap:round;stroke-linejoin:round;stroke-miterlimit:10;stroke-opacity:1;stroke-dasharray:none"
           id="path114"
           inkscape:connector-curvature="0" /><path
           d="m 50.72,265.62 c 0,1.12 0.91,2.03 2.02,2.03 1.12,0 2.03,-0.91 2.03,-2.03 0,-1.11 -0.91,-2.02 -2.03,-2.02 -1.11,0 -2.02,0.91 -2.02,2.02"
           style="fill:none;stroke:#8b0000;stroke-width:0.75;stroke-linecap:round;stroke-linejoin:round;stroke-miterlimit:10;stroke-opacity:1;stroke-dasharray:none"
           id="path116"
           inkscape:connector-curvature="0" /><path
           d="m 74.23,260.8 c 0,1.11 0.91,2.03 2.03,2.03 1.11,0 2.02,-0.92 2.02,-2.03 0,-1.11 -0.91,-2.02 -2.02,-2.02 -1.12,0 -2.03,0.91 -2.03,2.02"
           style="fill:none;stroke:#8b0000;stroke-width:0.75;stroke-linecap:round;stroke-linejoin:round;stroke-miterlimit:10;stroke-opacity:1;stroke-dasharray:none"
           id="path118"
           inkscape:connector-curvature="0" /><path
           d="m 97.74,257.53 c 0,1.12 0.92,2.03 2.03,2.03 1.11,0 2.02,-0.91 2.02,-2.03 0,-1.11 -0.91,-2.02 -2.02,-2.02 -1.11,0 -2.03,0.91 -2.03,2.02"
           style="fill:none;stroke:#8b0000;stroke-width:0.75;stroke-linecap:round;stroke-linejoin:round;stroke-miterlimit:10;stroke-opacity:1;stroke-dasharray:none"
           id="path120"
           inkscape:connector-curvature="0" /><path
           d="m 121.26,254 c 0,1.11 0.91,2.02 2.02,2.02 1.12,0 2.03,-0.91 2.03,-2.02 0,-1.12 -0.91,-2.03 -2.03,-2.03 -1.11,0 -2.02,0.91 -2.02,2.03"
           style="fill:none;stroke:#8b0000;stroke-width:0.75;stroke-linecap:round;stroke-linejoin:round;stroke-miterlimit:10;stroke-opacity:1;stroke-dasharray:none"
           id="path122"
           inkscape:connector-curvature="0" /><path
           d="m 144.77,251.4 c 0,1.12 0.91,2.03 2.02,2.03 1.12,0 2.03,-0.91 2.03,-2.03 0,-1.11 -0.91,-2.02 -2.03,-2.02 -1.11,0 -2.02,0.91 -2.02,2.02"
           style="fill:none;stroke:#8b0000;stroke-width:0.75;stroke-linecap:round;stroke-linejoin:round;stroke-miterlimit:10;stroke-opacity:1;stroke-dasharray:none"
           id="path124"
           inkscape:connector-curvature="0" /><path
           d="m 168.28,250.22 c 0,1.12 0.91,2.03 2.03,2.03 1.11,0 2.02,-0.91 2.02,-2.03 0,-1.11 -0.91,-2.02 -2.02,-2.02 -1.12,0 -2.03,0.91 -2.03,2.02"
           style="fill:none;stroke:#8b0000;stroke-width:0.75;stroke-linecap:round;stroke-linejoin:round;stroke-miterlimit:10;stroke-opacity:1;stroke-dasharray:none"
           id="path126"
           inkscape:connector-curvature="0" /><path
           d="m 191.79,251.21 c 0,1.11 0.91,2.02 2.03,2.02 1.11,0 2.02,-0.91 2.02,-2.02 0,-1.11 -0.91,-2.03 -2.02,-2.03 -1.12,0 -2.03,0.92 -2.03,2.03"
           style="fill:none;stroke:#8b0000;stroke-width:0.75;stroke-linecap:round;stroke-linejoin:round;stroke-miterlimit:10;stroke-opacity:1;stroke-dasharray:none"
           id="path128"
           inkscape:connector-curvature="0" /><path
           d="m 215.31,245.56 c 0,1.11 0.91,2.02 2.02,2.02 1.11,0 2.03,-0.91 2.03,-2.02 0,-1.12 -0.92,-2.03 -2.03,-2.03 -1.11,0 -2.02,0.91 -2.02,2.03"
           style="fill:none;stroke:#8b0000;stroke-width:0.75;stroke-linecap:round;stroke-linejoin:round;stroke-miterlimit:10;stroke-opacity:1;stroke-dasharray:none"
           id="path130"
           inkscape:connector-curvature="0" /><path
           d="m 238.82,242.74 c 0,1.12 0.91,2.03 2.02,2.03 1.12,0 2.03,-0.91 2.03,-2.03 0,-1.11 -0.91,-2.02 -2.03,-2.02 -1.11,0 -2.02,0.91 -2.02,2.02"
           style="fill:none;stroke:#8b0000;stroke-width:0.75;stroke-linecap:round;stroke-linejoin:round;stroke-miterlimit:10;stroke-opacity:1;stroke-dasharray:none"
           id="path132"
           inkscape:connector-curvature="0" /><path
           d="m 262.33,225.24 c 0,1.12 0.91,2.03 2.03,2.03 1.11,0 2.02,-0.91 2.02,-2.03 0,-1.11 -0.91,-2.02 -2.02,-2.02 -1.12,0 -2.03,0.91 -2.03,2.02"
           style="fill:none;stroke:#8b0000;stroke-width:0.75;stroke-linecap:round;stroke-linejoin:round;stroke-miterlimit:10;stroke-opacity:1;stroke-dasharray:none"
           id="path134"
           inkscape:connector-curvature="0" /><path
           d="m 52.74,168.25 23.52,-57.98 23.51,-8.54 23.51,-1.09 23.51,-1.71 23.52,-0.55 23.51,-0.44 23.51,-0.31 23.51,-0.35 23.52,-0.14"
           style="fill:none;stroke:#000000;stroke-width:0.75;stroke-linecap:round;stroke-linejoin:round;stroke-miterlimit:10;stroke-opacity:1;stroke-dasharray:2.25, 3.75;stroke-dashoffset:0"
           id="path136"
           inkscape:connector-curvature="0" /><path
           d="m 50.72,168.25 c 0,1.12 0.91,2.03 2.02,2.03 1.12,0 2.03,-0.91 2.03,-2.03 0,-1.11 -0.91,-2.02 -2.03,-2.02 -1.11,0 -2.02,0.91 -2.02,2.02"
           style="fill:none;stroke:#000000;stroke-width:0.75;stroke-linecap:round;stroke-linejoin:round;stroke-miterlimit:10;stroke-opacity:1;stroke-dasharray:none"
           id="path138"
           inkscape:connector-curvature="0" /><path
           d="m 74.23,110.27 c 0,1.11 0.91,2.02 2.03,2.02 1.11,0 2.02,-0.91 2.02,-2.02 0,-1.11 -0.91,-2.03 -2.02,-2.03 -1.12,0 -2.03,0.92 -2.03,2.03"
           style="fill:none;stroke:#000000;stroke-width:0.75;stroke-linecap:round;stroke-linejoin:round;stroke-miterlimit:10;stroke-opacity:1;stroke-dasharray:none"
           id="path140"
           inkscape:connector-curvature="0" /><path
           d="m 97.74,101.73 c 0,1.11 0.92,2.03 2.03,2.03 1.11,0 2.02,-0.92 2.02,-2.03 0,-1.11 -0.91,-2.02 -2.02,-2.02 -1.11,0 -2.03,0.91 -2.03,2.02"
           style="fill:none;stroke:#000000;stroke-width:0.75;stroke-linecap:round;stroke-linejoin:round;stroke-miterlimit:10;stroke-opacity:1;stroke-dasharray:none"
           id="path142"
           inkscape:connector-curvature="0" /><path
           d="m 121.26,100.64 c 0,1.11 0.91,2.03 2.02,2.03 1.12,0 2.03,-0.92 2.03,-2.03 0,-1.11 -0.91,-2.02 -2.03,-2.02 -1.11,0 -2.02,0.91 -2.02,2.02"
           style="fill:none;stroke:#000000;stroke-width:0.75;stroke-linecap:round;stroke-linejoin:round;stroke-miterlimit:10;stroke-opacity:1;stroke-dasharray:none"
           id="path144"
           inkscape:connector-curvature="0" /><path
           d="m 144.77,98.93 c 0,1.11 0.91,2.02 2.02,2.02 1.12,0 2.03,-0.91 2.03,-2.02 0,-1.12 -0.91,-2.03 -2.03,-2.03 -1.11,0 -2.02,0.91 -2.02,2.03"
           style="fill:none;stroke:#000000;stroke-width:0.75;stroke-linecap:round;stroke-linejoin:round;stroke-miterlimit:10;stroke-opacity:1;stroke-dasharray:none"
           id="path146"
           inkscape:connector-curvature="0" /><path
           d="m 168.28,98.38 c 0,1.11 0.91,2.02 2.03,2.02 1.11,0 2.02,-0.91 2.02,-2.02 0,-1.12 -0.91,-2.03 -2.02,-2.03 -1.12,0 -2.03,0.91 -2.03,2.03"
           style="fill:none;stroke:#000000;stroke-width:0.75;stroke-linecap:round;stroke-linejoin:round;stroke-miterlimit:10;stroke-opacity:1;stroke-dasharray:none"
           id="path148"
           inkscape:connector-curvature="0" /><path
           d="m 191.79,97.94 c 0,1.11 0.91,2.02 2.03,2.02 1.11,0 2.02,-0.91 2.02,-2.02 0,-1.12 -0.91,-2.03 -2.02,-2.03 -1.12,0 -2.03,0.91 -2.03,2.03"
           style="fill:none;stroke:#000000;stroke-width:0.75;stroke-linecap:round;stroke-linejoin:round;stroke-miterlimit:10;stroke-opacity:1;stroke-dasharray:none"
           id="path150"
           inkscape:connector-curvature="0" /><path
           d="m 215.31,97.63 c 0,1.11 0.91,2.02 2.02,2.02 1.11,0 2.03,-0.91 2.03,-2.02 0,-1.12 -0.92,-2.03 -2.03,-2.03 -1.11,0 -2.02,0.91 -2.02,2.03"
           style="fill:none;stroke:#000000;stroke-width:0.75;stroke-linecap:round;stroke-linejoin:round;stroke-miterlimit:10;stroke-opacity:1;stroke-dasharray:none"
           id="path152"
           inkscape:connector-curvature="0" /><path
           d="m 238.82,97.28 c 0,1.11 0.91,2.02 2.02,2.02 1.12,0 2.03,-0.91 2.03,-2.02 0,-1.12 -0.91,-2.03 -2.03,-2.03 -1.11,0 -2.02,0.91 -2.02,2.03"
           style="fill:none;stroke:#000000;stroke-width:0.75;stroke-linecap:round;stroke-linejoin:round;stroke-miterlimit:10;stroke-opacity:1;stroke-dasharray:none"
           id="path154"
           inkscape:connector-curvature="0" /><path
           d="m 262.33,97.14 c 0,1.12 0.91,2.03 2.03,2.03 1.11,0 2.02,-0.91 2.02,-2.03 0,-1.11 -0.91,-2.02 -2.02,-2.02 -1.12,0 -2.03,0.91 -2.03,2.02"
           style="fill:none;stroke:#000000;stroke-width:0.75;stroke-linecap:round;stroke-linejoin:round;stroke-miterlimit:10;stroke-opacity:1;stroke-dasharray:none"
           id="path156"
           inkscape:connector-curvature="0" /></g></g><g
       id="g158"><path
         d="m 52.74,55.08 220.08,0"
         style="fill:none;stroke:#000000;stroke-width:0.75;stroke-linecap:round;stroke-linejoin:round;stroke-miterlimit:10;stroke-opacity:1;stroke-dasharray:none"
         id="path160"
         inkscape:connector-curvature="0" /><path
         d="m 52.74,55.08 0,-5.4"
         style="fill:none;stroke:#000000;stroke-width:0.75;stroke-linecap:round;stroke-linejoin:round;stroke-miterlimit:10;stroke-opacity:1;stroke-dasharray:none"
         id="path162"
         inkscape:connector-curvature="0" /><path
         d="m 76.26,55.08 0,-5.4"
         style="fill:none;stroke:#000000;stroke-width:0.75;stroke-linecap:round;stroke-linejoin:round;stroke-miterlimit:10;stroke-opacity:1;stroke-dasharray:none"
         id="path164"
         inkscape:connector-curvature="0" /><path
         d="m 99.77,55.08 0,-5.4"
         style="fill:none;stroke:#000000;stroke-width:0.75;stroke-linecap:round;stroke-linejoin:round;stroke-miterlimit:10;stroke-opacity:1;stroke-dasharray:none"
         id="path166"
         inkscape:connector-curvature="0" /><path
         d="m 123.28,55.08 0,-5.4"
         style="fill:none;stroke:#000000;stroke-width:0.75;stroke-linecap:round;stroke-linejoin:round;stroke-miterlimit:10;stroke-opacity:1;stroke-dasharray:none"
         id="path168"
         inkscape:connector-curvature="0" /><path
         d="m 146.79,55.08 0,-5.4"
         style="fill:none;stroke:#000000;stroke-width:0.75;stroke-linecap:round;stroke-linejoin:round;stroke-miterlimit:10;stroke-opacity:1;stroke-dasharray:none"
         id="path170"
         inkscape:connector-curvature="0" /><path
         d="m 170.31,55.08 0,-5.4"
         style="fill:none;stroke:#000000;stroke-width:0.75;stroke-linecap:round;stroke-linejoin:round;stroke-miterlimit:10;stroke-opacity:1;stroke-dasharray:none"
         id="path172"
         inkscape:connector-curvature="0" /><path
         d="m 193.82,55.08 0,-5.4"
         style="fill:none;stroke:#000000;stroke-width:0.75;stroke-linecap:round;stroke-linejoin:round;stroke-miterlimit:10;stroke-opacity:1;stroke-dasharray:none"
         id="path174"
         inkscape:connector-curvature="0" /><path
         d="m 217.33,55.08 0,-5.4"
         style="fill:none;stroke:#000000;stroke-width:0.75;stroke-linecap:round;stroke-linejoin:round;stroke-miterlimit:10;stroke-opacity:1;stroke-dasharray:none"
         id="path176"
         inkscape:connector-curvature="0" /><path
         d="m 240.84,55.08 0,-5.4"
         style="fill:none;stroke:#000000;stroke-width:0.75;stroke-linecap:round;stroke-linejoin:round;stroke-miterlimit:10;stroke-opacity:1;stroke-dasharray:none"
         id="path178"
         inkscape:connector-curvature="0" /><path
         d="m 264.36,55.08 0,-5.4"
         style="fill:none;stroke:#000000;stroke-width:0.75;stroke-linecap:round;stroke-linejoin:round;stroke-miterlimit:10;stroke-opacity:1;stroke-dasharray:none"
         id="path180"
         inkscape:connector-curvature="0" /><text
         transform="matrix(1,0,0,-1,49.41,35.64)"
         id="text182"><tspan
           style="font-size:12px;font-variant:normal;font-weight:normal;writing-mode:lr-tb;fill:#000000;fill-opacity:1;fill-rule:nonzero;stroke:none;font-family:Helvetica;-inkscape-font-specification:Helvetica"
           x="0"
           y="0"
           id="tspan184">0</tspan></text>
<text
         transform="matrix(1,0,0,-1,67.92,35.64)"
         id="text186"><tspan
           style="font-size:12px;font-variant:normal;font-weight:normal;writing-mode:lr-tb;fill:#000000;fill-opacity:1;fill-rule:nonzero;stroke:none;font-family:Helvetica;-inkscape-font-specification:Helvetica"
           x="0 6.6719999 10.008"
           y="0"
           sodipodi:role="line"
           id="tspan188">0.1</tspan></text>
<text
         transform="matrix(1,0,0,-1,114.94,35.64)"
         id="text190"><tspan
           style="font-size:12px;font-variant:normal;font-weight:normal;writing-mode:lr-tb;fill:#000000;fill-opacity:1;fill-rule:nonzero;stroke:none;font-family:Helvetica;-inkscape-font-specification:Helvetica"
           x="0 6.6719999 10.008"
           y="0"
           sodipodi:role="line"
           id="tspan192">0.3</tspan></text>
<text
         transform="matrix(1,0,0,-1,161.97,35.64)"
         id="text194"><tspan
           style="font-size:12px;font-variant:normal;font-weight:normal;writing-mode:lr-tb;fill:#000000;fill-opacity:1;fill-rule:nonzero;stroke:none;font-family:Helvetica;-inkscape-font-specification:Helvetica"
           x="0 6.6719999 10.008"
           y="0"
           sodipodi:role="line"
           id="tspan196">0.5</tspan></text>
<text
         transform="matrix(1,0,0,-1,208.99,35.64)"
         id="text198"><tspan
           style="font-size:12px;font-variant:normal;font-weight:normal;writing-mode:lr-tb;fill:#000000;fill-opacity:1;fill-rule:nonzero;stroke:none;font-family:Helvetica;-inkscape-font-specification:Helvetica"
           x="0 6.6719999 10.008"
           y="0"
           sodipodi:role="line"
           id="tspan200">0.7</tspan></text>
<text
         transform="matrix(1,0,0,-1,256.02,35.64)"
         id="text202"><tspan
           style="font-size:12px;font-variant:normal;font-weight:normal;writing-mode:lr-tb;fill:#000000;fill-opacity:1;fill-rule:nonzero;stroke:none;font-family:Helvetica;-inkscape-font-specification:Helvetica"
           x="0 6.6719999 10.008"
           y="0"
           sodipodi:role="line"
           id="tspan204">0.9</tspan></text>
</g></g></svg>